<svg width="359" height="68" viewBox="0 0 359 68" fill="none" xmlns="http://www.w3.org/2000/svg">
<path d="M105.068 34.08C105.068 35.616 104.708 37.02 103.988 38.292C103.292 39.54 102.224 40.548 100.784 41.316C99.368 42.06 97.628 42.432 95.564 42.432H92.072V51H85.016V25.62H95.564C97.604 25.62 99.332 25.98 100.748 26.7C102.188 27.42 103.268 28.416 103.988 29.688C104.708 30.96 105.068 32.424 105.068 34.08ZM94.88 36.816C96.872 36.816 97.868 35.904 97.868 34.08C97.868 32.232 96.872 31.308 94.88 31.308H92.072V36.816H94.88ZM114.959 34.368C115.751 33.216 116.711 32.304 117.839 31.632C118.967 30.96 120.179 30.624 121.475 30.624V38.148H119.495C117.959 38.148 116.819 38.448 116.075 39.048C115.331 39.648 114.959 40.692 114.959 42.18V51H107.903V30.804H114.959V34.368ZM133.4 51.252C131.384 51.252 129.572 50.832 127.964 49.992C126.38 49.152 125.132 47.952 124.22 46.392C123.308 44.832 122.852 42.996 122.852 40.884C122.852 38.796 123.308 36.972 124.22 35.412C125.156 33.852 126.416 32.652 128 31.812C129.608 30.972 131.42 30.552 133.436 30.552C135.452 30.552 137.252 30.972 138.836 31.812C140.444 32.652 141.704 33.852 142.616 35.412C143.552 36.972 144.02 38.796 144.02 40.884C144.02 42.972 143.552 44.808 142.616 46.392C141.704 47.952 140.444 49.152 138.836 49.992C137.228 50.832 135.416 51.252 133.4 51.252ZM133.4 45.132C134.384 45.132 135.2 44.772 135.848 44.052C136.52 43.308 136.856 42.252 136.856 40.884C136.856 39.516 136.52 38.472 135.848 37.752C135.2 37.032 134.396 36.672 133.436 36.672C132.476 36.672 131.672 37.032 131.024 37.752C130.376 38.472 130.052 39.516 130.052 40.884C130.052 42.276 130.364 43.332 130.988 44.052C131.612 44.772 132.416 45.132 133.4 45.132ZM169.838 46.86H160.838L159.47 51H152.054L161.306 25.62H169.442L178.658 51H171.206L169.838 46.86ZM168.074 41.46L165.338 33.252L162.638 41.46H168.074ZM194.169 30.624C196.497 30.624 198.345 31.404 199.713 32.964C201.081 34.5 201.765 36.588 201.765 39.228V51H194.709V40.164C194.709 39.012 194.409 38.112 193.809 37.464C193.209 36.792 192.405 36.456 191.397 36.456C190.341 36.456 189.513 36.792 188.913 37.464C188.313 38.112 188.013 39.012 188.013 40.164V51H180.957V30.804H188.013V33.684C188.637 32.772 189.477 32.04 190.533 31.488C191.589 30.912 192.801 30.624 194.169 30.624ZM204.485 40.884C204.485 38.796 204.857 36.972 205.601 35.412C206.369 33.852 207.401 32.652 208.697 31.812C210.017 30.972 211.481 30.552 213.089 30.552C214.481 30.552 215.681 30.828 216.689 31.38C217.697 31.932 218.477 32.676 219.029 33.612V30.804H226.085V51H219.029V48.192C218.477 49.128 217.685 49.872 216.653 50.424C215.645 50.976 214.457 51.252 213.089 51.252C211.481 51.252 210.017 50.832 208.697 49.992C207.401 49.152 206.369 47.952 205.601 46.392C204.857 44.808 204.485 42.972 204.485 40.884ZM219.029 40.884C219.029 39.588 218.669 38.568 217.949 37.824C217.253 37.08 216.389 36.708 215.357 36.708C214.301 36.708 213.425 37.08 212.729 37.824C212.033 38.544 211.685 39.564 211.685 40.884C211.685 42.18 212.033 43.212 212.729 43.98C213.425 44.724 214.301 45.096 215.357 45.096C216.389 45.096 217.253 44.724 217.949 43.98C218.669 43.236 219.029 42.204 219.029 40.884ZM237.162 24.36V51H230.106V24.36H237.162ZM262.924 30.804L250.108 60.612H242.44L247.264 50.136L238.984 30.804H246.832L251.08 42.252L255.184 30.804H262.924ZM273.374 51.252C271.55 51.252 269.918 50.952 268.478 50.352C267.062 49.728 265.934 48.888 265.094 47.832C264.278 46.752 263.822 45.54 263.726 44.196H270.566C270.662 44.844 270.962 45.348 271.466 45.708C271.97 46.068 272.594 46.248 273.338 46.248C273.914 46.248 274.37 46.128 274.706 45.888C275.042 45.648 275.21 45.336 275.21 44.952C275.21 44.448 274.934 44.076 274.382 43.836C273.83 43.596 272.918 43.332 271.646 43.044C270.206 42.756 269.006 42.432 268.046 42.072C267.086 41.712 266.246 41.124 265.526 40.308C264.83 39.492 264.482 38.388 264.482 36.996C264.482 35.796 264.806 34.716 265.454 33.756C266.102 32.772 267.05 31.992 268.298 31.416C269.57 30.84 271.094 30.552 272.87 30.552C275.51 30.552 277.586 31.2 279.098 32.496C280.61 33.792 281.486 35.496 281.726 37.608H275.354C275.234 36.96 274.946 36.468 274.49 36.132C274.058 35.772 273.47 35.592 272.726 35.592C272.15 35.592 271.706 35.7 271.394 35.916C271.106 36.132 270.962 36.432 270.962 36.816C270.962 37.296 271.238 37.668 271.79 37.932C272.342 38.172 273.23 38.424 274.454 38.688C275.918 39 277.13 39.348 278.09 39.732C279.074 40.116 279.926 40.74 280.646 41.604C281.39 42.444 281.762 43.596 281.762 45.06C281.762 46.236 281.414 47.292 280.718 48.228C280.046 49.164 279.074 49.908 277.802 50.46C276.554 50.988 275.078 51.252 273.374 51.252ZM288.795 28.932C287.547 28.932 286.539 28.596 285.771 27.924C285.027 27.228 284.655 26.364 284.655 25.332C284.655 24.276 285.027 23.4 285.771 22.704C286.539 22.008 287.547 21.66 288.795 21.66C290.019 21.66 291.003 22.008 291.747 22.704C292.515 23.4 292.899 24.276 292.899 25.332C292.899 26.364 292.515 27.228 291.747 27.924C291.003 28.596 290.019 28.932 288.795 28.932ZM292.287 30.804V51H285.231V30.804H292.287ZM304.909 51.252C303.085 51.252 301.453 50.952 300.013 50.352C298.597 49.728 297.469 48.888 296.629 47.832C295.813 46.752 295.357 45.54 295.261 44.196H302.101C302.197 44.844 302.497 45.348 303.001 45.708C303.505 46.068 304.129 46.248 304.873 46.248C305.449 46.248 305.905 46.128 306.241 45.888C306.577 45.648 306.745 45.336 306.745 44.952C306.745 44.448 306.469 44.076 305.917 43.836C305.365 43.596 304.453 43.332 303.181 43.044C301.741 42.756 300.541 42.432 299.581 42.072C298.621 41.712 297.781 41.124 297.061 40.308C296.365 39.492 296.017 38.388 296.017 36.996C296.017 35.796 296.341 34.716 296.989 33.756C297.637 32.772 298.585 31.992 299.833 31.416C301.105 30.84 302.629 30.552 304.405 30.552C307.045 30.552 309.121 31.2 310.633 32.496C312.145 33.792 313.021 35.496 313.261 37.608H306.889C306.769 36.96 306.481 36.468 306.025 36.132C305.593 35.772 305.005 35.592 304.261 35.592C303.685 35.592 303.241 35.7 302.929 35.916C302.641 36.132 302.497 36.432 302.497 36.816C302.497 37.296 302.773 37.668 303.325 37.932C303.877 38.172 304.765 38.424 305.989 38.688C307.453 39 308.665 39.348 309.625 39.732C310.609 40.116 311.461 40.74 312.181 41.604C312.925 42.444 313.297 43.596 313.297 45.06C313.297 46.236 312.949 47.292 312.253 48.228C311.581 49.164 310.609 49.908 309.337 50.46C308.089 50.988 306.613 51.252 304.909 51.252Z" fill="#45519B"/>
<path d="M26 11V27.2878L13 35.4305L0 27.2866L26 11Z" fill="#8989A2"/>
<path d="M13.0022 35.4295L26.0022 43.5723V59.8577L13.0022 51.715L0.00219727 43.5723V27.2856L13.0022 35.4295Z" fill="#45519B"/>
<path d="M39.001 51.7147V67.9989L26.001 59.8574V43.572L39.001 51.7147Z" fill="#45519B"/>
<path d="M26 11V27.2854L39 35.427L52 43.5685V27.2866L26 11Z" fill="#45519B"/>
<path d="M51.999 27.2856V43.5734L38.999 51.7162L25.999 43.5723L38.999 35.4284L51.999 27.2856Z" fill="#8989A2"/>
<path d="M39.001 51.7147L26.001 59.8574V43.572L39.001 51.7147Z" fill="#8989A2"/>
<rect x="292" width="67" height="23" rx="8" fill="#45519B"/>
<path d="M310.029 10.7422H306.197L306.18 10.1006H309.388C310.103 10.1006 310.706 10.0039 311.198 9.81055C311.69 9.61719 312.062 9.32715 312.314 8.94043C312.566 8.54785 312.692 8.05859 312.692 7.47266C312.692 6.88672 312.563 6.40039 312.306 6.01367C312.048 5.62695 311.661 5.33691 311.146 5.14355C310.636 4.9502 309.997 4.85352 309.229 4.85352H306.417V17H305.705V4.20312H309.229C309.88 4.20312 310.463 4.26758 310.979 4.39648C311.494 4.52539 311.931 4.72754 312.288 5.00293C312.651 5.27246 312.93 5.61523 313.123 6.03125C313.316 6.44727 313.413 6.93945 313.413 7.50781C313.413 8.03516 313.308 8.50977 313.097 8.93164C312.886 9.35352 312.581 9.69922 312.183 9.96875C311.79 10.2324 311.31 10.3936 310.741 10.4521L310.029 10.7422ZM309.941 17H306.048L306.355 16.3496H309.941C310.627 16.3496 311.213 16.2354 311.699 16.0068C312.191 15.7725 312.569 15.4414 312.833 15.0137C313.103 14.5801 313.237 14.0615 313.237 13.458C313.237 12.9717 313.12 12.5234 312.886 12.1133C312.651 11.6973 312.297 11.3662 311.822 11.1201C311.348 10.8682 310.75 10.7422 310.029 10.7422H307.885L307.902 10.1006H310.987L311.084 10.3291C311.641 10.3936 312.133 10.5723 312.561 10.8652C312.994 11.1582 313.334 11.5303 313.58 11.9814C313.826 12.4268 313.949 12.9131 313.949 13.4404C313.949 14.208 313.779 14.8555 313.439 15.3828C313.1 15.9102 312.628 16.3115 312.024 16.5869C311.427 16.8623 310.732 17 309.941 17ZM322.29 15.251V10.3379C322.29 9.83984 322.185 9.41211 321.974 9.05469C321.763 8.69727 321.455 8.4248 321.051 8.2373C320.646 8.04395 320.151 7.94727 319.565 7.94727C319.021 7.94727 318.531 8.04395 318.098 8.2373C317.67 8.4248 317.333 8.68262 317.087 9.01074C316.841 9.33887 316.718 9.70508 316.718 10.1094L316.015 10.1006C316.015 9.7373 316.1 9.38867 316.27 9.05469C316.445 8.7207 316.691 8.4248 317.008 8.16699C317.33 7.90332 317.708 7.69531 318.142 7.54297C318.581 7.39063 319.062 7.31445 319.583 7.31445C320.251 7.31445 320.84 7.42871 321.35 7.65723C321.865 7.87988 322.267 8.2168 322.554 8.66797C322.841 9.11914 322.984 9.68164 322.984 10.3555V15.0488C322.984 15.3887 323.008 15.7314 323.055 16.0771C323.102 16.4229 323.166 16.7012 323.248 16.9121V17H322.483C322.419 16.7773 322.369 16.5049 322.334 16.1826C322.305 15.8604 322.29 15.5498 322.29 15.251ZM322.519 11.6035L322.536 12.21H320.216C319.63 12.21 319.105 12.2656 318.643 12.377C318.18 12.4883 317.787 12.6465 317.465 12.8516C317.143 13.0566 316.896 13.2998 316.727 13.5811C316.557 13.8623 316.472 14.1787 316.472 14.5303C316.472 14.8936 316.568 15.2275 316.762 15.5322C316.955 15.8369 317.228 16.0801 317.579 16.2617C317.931 16.4375 318.338 16.5254 318.801 16.5254C319.434 16.5254 319.993 16.417 320.479 16.2002C320.972 15.9775 321.385 15.6787 321.719 15.3037C322.053 14.9229 322.296 14.4834 322.448 13.9854L322.756 14.4951C322.656 14.8057 322.501 15.1191 322.29 15.4355C322.079 15.752 321.807 16.042 321.473 16.3057C321.139 16.5635 320.746 16.7744 320.295 16.9385C319.844 17.0967 319.331 17.1758 318.757 17.1758C318.153 17.1758 317.626 17.0645 317.175 16.8418C316.729 16.6133 316.384 16.3027 316.138 15.9102C315.892 15.5117 315.769 15.0576 315.769 14.5479C315.769 14.1084 315.868 13.707 316.067 13.3438C316.267 12.9805 316.554 12.6699 316.929 12.4121C317.31 12.1484 317.77 11.9492 318.309 11.8145C318.854 11.6738 319.466 11.6035 320.146 11.6035H322.519ZM331.756 14.6357C331.756 14.3545 331.68 14.0762 331.527 13.8008C331.381 13.5254 331.108 13.2676 330.71 13.0273C330.317 12.7871 329.746 12.585 328.996 12.4209C328.463 12.3037 327.991 12.1748 327.581 12.0342C327.177 11.8936 326.837 11.7236 326.562 11.5244C326.286 11.3193 326.078 11.0762 325.938 10.7949C325.803 10.5137 325.735 10.1768 325.735 9.78418C325.735 9.44434 325.809 9.125 325.955 8.82617C326.102 8.52734 326.315 8.2666 326.597 8.04395C326.884 7.81543 327.227 7.63672 327.625 7.50781C328.023 7.37891 328.475 7.31445 328.979 7.31445C329.699 7.31445 330.314 7.43457 330.824 7.6748C331.34 7.90918 331.735 8.23438 332.011 8.65039C332.286 9.06055 332.424 9.53809 332.424 10.083H331.721C331.721 9.71387 331.615 9.36816 331.404 9.0459C331.193 8.72363 330.883 8.46289 330.473 8.26367C330.068 8.05859 329.57 7.95605 328.979 7.95605C328.381 7.95605 327.895 8.04688 327.52 8.22852C327.145 8.41016 326.869 8.6416 326.693 8.92285C326.523 9.19824 326.438 9.47949 326.438 9.7666C326.438 9.99512 326.471 10.209 326.535 10.4082C326.605 10.6016 326.737 10.7803 326.931 10.9443C327.124 11.1084 327.402 11.2666 327.766 11.4189C328.129 11.5654 328.601 11.7031 329.181 11.832C329.942 12.002 330.563 12.21 331.044 12.4561C331.524 12.6963 331.879 12.9922 332.107 13.3438C332.336 13.6895 332.45 14.1143 332.45 14.6182C332.45 14.9932 332.371 15.3389 332.213 15.6553C332.055 15.9658 331.826 16.2354 331.527 16.4639C331.234 16.6924 330.877 16.8682 330.455 16.9912C330.033 17.1143 329.564 17.1758 329.049 17.1758C328.27 17.1758 327.607 17.0527 327.062 16.8066C326.523 16.5547 326.113 16.2236 325.832 15.8135C325.557 15.4033 325.419 14.9609 325.419 14.4863H326.122C326.163 15.0078 326.333 15.418 326.632 15.7168C326.937 16.0156 327.306 16.2266 327.739 16.3496C328.179 16.4727 328.615 16.5342 329.049 16.5342C329.641 16.5342 330.136 16.4434 330.534 16.2617C330.938 16.0742 331.243 15.8369 331.448 15.5498C331.653 15.2568 331.756 14.9521 331.756 14.6357ZM335.79 7.49023V17H335.087V7.49023H335.79ZM334.867 4.60742C334.867 4.44922 334.92 4.31445 335.025 4.20312C335.137 4.08594 335.277 4.02734 335.447 4.02734C335.611 4.02734 335.749 4.08594 335.86 4.20312C335.972 4.31445 336.027 4.44922 336.027 4.60742C336.027 4.76562 335.972 4.90039 335.86 5.01172C335.749 5.11719 335.611 5.16992 335.447 5.16992C335.277 5.16992 335.137 5.11719 335.025 5.01172C334.92 4.90039 334.867 4.76562 334.867 4.60742ZM342.162 16.5342C342.637 16.5342 343.085 16.4463 343.507 16.2705C343.935 16.0947 344.289 15.8281 344.57 15.4707C344.857 15.1074 345.019 14.6475 345.054 14.0908H345.739C345.71 14.7236 345.528 15.2715 345.194 15.7344C344.86 16.1914 344.43 16.5459 343.902 16.7979C343.375 17.0498 342.795 17.1758 342.162 17.1758C341.529 17.1758 340.964 17.0586 340.466 16.8242C339.974 16.5898 339.561 16.2588 339.227 15.8311C338.893 15.4033 338.638 14.9023 338.462 14.3281C338.292 13.748 338.207 13.1152 338.207 12.4297V12.0605C338.207 11.375 338.292 10.7451 338.462 10.1709C338.638 9.59082 338.893 9.08691 339.227 8.65918C339.561 8.23145 339.971 7.90039 340.457 7.66602C340.949 7.43164 341.512 7.31445 342.145 7.31445C342.783 7.31445 343.369 7.44629 343.902 7.70996C344.436 7.96777 344.866 8.3457 345.194 8.84375C345.528 9.33594 345.71 9.93945 345.739 10.6543H345.054C345.024 10.0684 344.875 9.57617 344.605 9.17773C344.336 8.7793 343.984 8.47754 343.551 8.27246C343.117 8.06152 342.648 7.95605 342.145 7.95605C341.582 7.95605 341.096 8.06445 340.686 8.28125C340.275 8.49805 339.938 8.79688 339.675 9.17773C339.411 9.55273 339.218 9.98926 339.095 10.4873C338.972 10.9795 338.91 11.5039 338.91 12.0605V12.4297C338.91 12.9922 338.972 13.5225 339.095 14.0205C339.218 14.5127 339.411 14.9463 339.675 15.3213C339.938 15.6963 340.275 15.9922 340.686 16.209C341.102 16.4258 341.594 16.5342 342.162 16.5342Z" fill="#F4D63A"/>
<path d="M310.029 10.7422V11.7422H310.225L310.407 11.6683L310.029 10.7422ZM306.197 10.7422L305.198 10.7696L305.224 11.7422H306.197V10.7422ZM306.18 10.1006V9.10059H305.152L305.18 10.128L306.18 10.1006ZM312.314 8.94043L313.152 9.48632L313.156 9.48055L312.314 8.94043ZM311.146 5.14355L310.791 6.07856L310.794 6.07988L311.146 5.14355ZM306.417 4.85352V3.85352H305.417V4.85352H306.417ZM306.417 17V18H307.417V17H306.417ZM305.705 17H304.705V18H305.705V17ZM305.705 4.20312V3.20312H304.705V4.20312H305.705ZM312.288 5.00293L311.678 5.79507L311.685 5.80061L311.692 5.80603L312.288 5.00293ZM312.183 9.96875L312.74 10.7989L312.743 10.797L312.183 9.96875ZM310.741 10.4521L310.639 9.45742L310.496 9.47209L310.364 9.52606L310.741 10.4521ZM306.048 17L305.144 16.5724L304.469 18H306.048V17ZM306.355 16.3496V15.3496H305.722L305.451 15.922L306.355 16.3496ZM311.699 16.0068L312.124 16.9119L312.129 16.9097L311.699 16.0068ZM312.833 15.0137L311.984 14.4857L311.982 14.4889L312.833 15.0137ZM312.886 12.1133L312.014 12.6041L312.017 12.6094L312.886 12.1133ZM311.822 11.1201L311.353 12.0034L311.362 12.0079L311.822 11.1201ZM307.885 10.7422L306.885 10.7148L306.857 11.7422H307.885V10.7422ZM307.902 10.1006V9.10059H306.929L306.903 10.0732L307.902 10.1006ZM310.987 10.1006L311.908 9.71095L311.65 9.10059H310.987V10.1006ZM311.084 10.3291L310.163 10.7187L310.39 11.2554L310.969 11.3225L311.084 10.3291ZM312.561 10.8652L311.995 11.6903L312.001 11.6938L312.561 10.8652ZM313.58 11.9814L312.702 12.4603L312.705 12.4651L313.58 11.9814ZM312.024 16.5869L311.609 15.6771L311.606 15.6787L312.024 16.5869ZM310.029 9.74219H306.197V11.7422H310.029V9.74219ZM307.197 10.7148L307.179 10.0732L305.18 10.128L305.198 10.7696L307.197 10.7148ZM306.18 11.1006H309.388V9.10059H306.18V11.1006ZM309.388 11.1006C310.186 11.1006 310.922 10.9934 311.564 10.7413L310.833 8.8798C310.49 9.01439 310.019 9.10059 309.388 9.10059V11.1006ZM311.564 10.7413C312.22 10.4834 312.771 10.0719 313.152 9.48631L311.477 8.39455C311.354 8.58239 311.16 8.751 310.833 8.8798L311.564 10.7413ZM313.156 9.48055C313.535 8.89011 313.692 8.20123 313.692 7.47266H311.692C311.692 7.91596 311.598 8.20559 311.473 8.40031L313.156 9.48055ZM313.692 7.47266C313.692 6.7407 313.53 6.04807 313.138 5.45897L311.474 6.56837C311.597 6.75271 311.692 7.03273 311.692 7.47266H313.692ZM313.138 5.45897C312.743 4.86731 312.171 4.46023 311.497 4.20723L310.794 6.07988C311.151 6.21359 311.352 6.3866 311.474 6.56837L313.138 5.45897ZM311.5 4.20856C310.841 3.95857 310.073 3.85352 309.229 3.85352V5.85352C309.922 5.85352 310.43 5.94182 310.791 6.07855L311.5 4.20856ZM309.229 3.85352H306.417V5.85352H309.229V3.85352ZM305.417 4.85352V17H307.417V4.85352H305.417ZM306.417 16H305.705V18H306.417V16ZM306.705 17V4.20312H304.705V17H306.705ZM305.705 5.20312H309.229V3.20312H305.705V5.20312ZM309.229 5.20312C309.816 5.20312 310.315 5.26138 310.736 5.36663L311.221 3.42634C310.611 3.27377 309.944 3.20312 309.229 3.20312V5.20312ZM310.736 5.36663C311.142 5.46801 311.447 5.61729 311.678 5.79507L312.898 4.21079C312.414 3.83779 311.847 3.58277 311.221 3.42634L310.736 5.36663ZM311.692 5.80603C311.92 5.9748 312.092 6.18562 312.216 6.45274L314.03 5.60976C313.767 5.04485 313.383 4.57012 312.884 4.19983L311.692 5.80603ZM312.216 6.45274C312.335 6.70907 312.413 7.05114 312.413 7.50781H314.413C314.413 6.82777 314.297 6.18546 314.03 5.60976L312.216 6.45274ZM312.413 7.50781C312.413 7.89843 312.336 8.21708 312.202 8.48443L313.991 9.37885C314.279 8.80245 314.413 8.17188 314.413 7.50781H312.413ZM312.202 8.48443C312.07 8.74954 311.881 8.96516 311.622 9.14047L312.743 10.797C313.281 10.4333 313.702 9.9575 313.991 9.37885L312.202 8.48443ZM311.625 9.13861C311.394 9.29384 311.078 9.41215 310.639 9.45742L310.844 11.4469C311.541 11.375 312.186 11.171 312.74 10.7989L311.625 9.13861ZM310.364 9.52606L309.652 9.8161L310.407 11.6683L311.119 11.3782L310.364 9.52606ZM309.941 16H306.048V18H309.941V16ZM306.952 17.4276L307.259 16.7772L305.451 15.922L305.144 16.5724L306.952 17.4276ZM306.355 17.3496H309.941V15.3496H306.355V17.3496ZM309.941 17.3496C310.735 17.3496 311.474 17.2177 312.124 16.9119L311.274 15.1018C310.952 15.253 310.519 15.3496 309.941 15.3496V17.3496ZM312.129 16.9097C312.78 16.5998 313.311 16.1441 313.684 15.5384L311.982 14.4889C311.828 14.7387 311.603 14.9451 311.269 15.104L312.129 16.9097ZM313.682 15.5416C314.067 14.9227 314.237 14.2137 314.237 13.458H312.237C312.237 13.9093 312.138 14.2375 311.984 14.4857L313.682 15.5416ZM314.237 13.458C314.237 12.803 314.077 12.183 313.754 11.6171L312.017 12.6094C312.163 12.8639 312.237 13.1403 312.237 13.458H314.237ZM313.757 11.6224C313.416 11.0172 312.908 10.5569 312.283 10.2324L311.362 12.0079C311.685 12.1755 311.887 12.3774 312.014 12.6041L313.757 11.6224ZM312.291 10.2369C311.631 9.88659 310.86 9.74219 310.029 9.74219V11.7422C310.64 11.7422 311.064 11.8497 311.353 12.0034L312.291 10.2369ZM310.029 9.74219H307.885V11.7422H310.029V9.74219ZM308.884 10.7696L308.902 10.128L306.903 10.0732L306.885 10.7148L308.884 10.7696ZM307.902 11.1006H310.987V9.10059H307.902V11.1006ZM310.066 10.4902L310.163 10.7187L312.005 9.93946L311.908 9.71095L310.066 10.4902ZM310.969 11.3225C311.378 11.3698 311.713 11.4965 311.995 11.6903L313.126 10.0402C312.553 9.64806 311.904 9.41734 311.199 9.33574L310.969 11.3225ZM312.001 11.6938C312.304 11.899 312.534 12.1521 312.702 12.4603L314.458 11.5026C314.134 10.9085 313.684 10.4174 313.12 10.0366L312.001 11.6938ZM312.705 12.4651C312.866 12.7568 312.949 13.0759 312.949 13.4404H314.949C314.949 12.7503 314.786 12.0967 314.455 11.4978L312.705 12.4651ZM312.949 13.4404C312.949 14.059 312.814 14.5081 312.599 14.8411L314.28 15.9245C314.745 15.2029 314.949 14.357 314.949 13.4404H312.949ZM312.599 14.8411C312.369 15.1982 312.049 15.4764 311.609 15.6772L312.44 17.4967C313.207 17.1466 313.83 16.6221 314.28 15.9245L312.599 14.8411ZM311.606 15.6787C311.163 15.8827 310.617 16 309.941 16V18C310.848 18 311.69 17.842 312.443 17.4951L311.606 15.6787ZM321.051 8.2373L320.619 9.1395L320.63 9.14449L321.051 8.2373ZM318.098 8.2373L318.499 9.15319L318.505 9.15061L318.098 8.2373ZM316.718 10.1094L316.705 11.1093L317.718 11.122V10.1094H316.718ZM316.015 10.1006H315.015V11.0882L316.002 11.1005L316.015 10.1006ZM316.27 9.05469L315.385 8.5889L315.378 8.60123L316.27 9.05469ZM317.008 8.16699L317.639 8.94223L317.641 8.94095L317.008 8.16699ZM318.142 7.54297L317.814 6.59812L317.81 6.59951L318.142 7.54297ZM321.35 7.65723L320.941 8.56982L320.953 8.57529L321.35 7.65723ZM323.248 16.9121H324.248V16.7245L324.18 16.5497L323.248 16.9121ZM323.248 17V18H324.248V17H323.248ZM322.483 17L321.523 17.2781L321.732 18H322.483V17ZM322.334 16.1826L321.338 16.2732L321.339 16.2821L321.34 16.2911L322.334 16.1826ZM322.519 11.6035L323.518 11.5745L323.49 10.6035H322.519V11.6035ZM322.536 12.21V13.21H323.566L323.536 12.181L322.536 12.21ZM317.579 16.2617L317.12 17.1502L317.132 17.1561L317.579 16.2617ZM320.479 16.2002L320.887 17.1136L320.892 17.1113L320.479 16.2002ZM321.719 15.3037L322.466 15.9688L322.471 15.963L321.719 15.3037ZM322.448 13.9854L323.304 13.4687L322.147 11.5509L321.492 13.6928L322.448 13.9854ZM322.756 14.4951L323.708 14.8005L323.847 14.3677L323.612 13.9785L322.756 14.4951ZM321.473 16.3057L322.084 17.0973L322.092 17.0905L321.473 16.3057ZM320.295 16.9385L320.626 17.8822L320.637 17.8783L320.295 16.9385ZM317.175 16.8418L316.718 17.7315L316.725 17.7351L316.732 17.7385L317.175 16.8418ZM316.138 15.9102L315.287 16.4357L315.29 16.4413L316.138 15.9102ZM316.929 12.4121L317.495 13.2362L317.498 13.2343L316.929 12.4121ZM318.309 11.8145L318.551 12.7846L318.558 12.7827L318.309 11.8145ZM323.29 15.251V10.3379H321.29V15.251H323.29ZM323.29 10.3379C323.29 9.69693 323.153 9.08603 322.835 8.54643L321.112 9.56294C321.216 9.73819 321.29 9.98275 321.29 10.3379H323.29ZM322.835 8.54643C322.513 8.00139 322.045 7.59626 321.472 7.33012L320.63 9.14449C320.865 9.25335 321.012 9.39314 321.112 9.56294L322.835 8.54643ZM321.482 7.33517C320.908 7.06075 320.257 6.94727 319.565 6.94727V8.94727C320.046 8.94727 320.385 9.02714 320.619 9.13944L321.482 7.33517ZM319.565 6.94727C318.901 6.94727 318.27 7.06563 317.69 7.324L318.505 9.15061C318.793 9.02226 319.14 8.94727 319.565 8.94727V6.94727ZM317.696 7.32144C317.133 7.56839 316.65 7.92656 316.287 8.41074L317.887 9.61074C318.016 9.43867 318.207 9.28122 318.499 9.15317L317.696 7.32144ZM316.287 8.41074C315.913 8.90926 315.718 9.48535 315.718 10.1094H317.718C317.718 9.92481 317.769 9.76848 317.887 9.61074L316.287 8.41074ZM316.73 9.10945L316.027 9.10066L316.002 11.1005L316.705 11.1093L316.73 9.10945ZM317.015 10.1006C317.015 9.89997 317.06 9.70623 317.161 9.50814L315.378 8.60123C315.139 9.07111 315.015 9.57464 315.015 10.1006H317.015ZM317.154 9.52043C317.263 9.31503 317.419 9.12197 317.639 8.94223L316.376 7.39176C315.964 7.72763 315.628 8.12637 315.385 8.58894L317.154 9.52043ZM317.641 8.94095C317.864 8.75813 318.138 8.60422 318.473 8.48643L317.81 6.59951C317.278 6.7864 316.796 7.04851 316.375 7.39303L317.641 8.94095ZM318.469 8.48781C318.791 8.37612 319.16 8.31445 319.583 8.31445V6.31445C318.963 6.31445 318.371 6.40513 317.814 6.59813L318.469 8.48781ZM319.583 8.31445C320.137 8.31445 320.582 8.40905 320.941 8.56974L321.759 6.74472C321.098 6.44837 320.365 6.31445 319.583 6.31445V8.31445ZM320.953 8.57529C321.295 8.72276 321.536 8.93141 321.71 9.20484L323.397 8.13109C322.997 7.50218 322.436 7.03701 321.746 6.73916L320.953 8.57529ZM321.71 9.20484C321.872 9.45859 321.984 9.82265 321.984 10.3555H323.984C323.984 9.54063 323.81 8.77969 323.397 8.13109L321.71 9.20484ZM321.984 10.3555V15.0488H323.984V10.3555H321.984ZM321.984 15.0488C321.984 15.4348 322.011 15.8225 322.064 16.2115L324.046 15.9428C324.005 15.6404 323.984 15.3426 323.984 15.0488H321.984ZM322.064 16.2115C322.116 16.5981 322.194 16.9619 322.316 17.2746L324.18 16.5497C324.138 16.4404 324.087 16.2476 324.046 15.9428L322.064 16.2115ZM322.248 16.9121V17H324.248V16.9121H322.248ZM323.248 16H322.483V18H323.248V16ZM323.444 16.7219C323.4 16.5717 323.359 16.3598 323.328 16.0742L321.34 16.2911C321.379 16.65 321.437 16.9829 321.523 17.2781L323.444 16.7219ZM323.33 16.0921C323.303 15.7975 323.29 15.5172 323.29 15.251H321.29C321.29 15.5824 321.306 15.9232 321.338 16.2732L323.33 16.0921ZM321.519 11.6325L321.537 12.2389L323.536 12.181L323.518 11.5745L321.519 11.6325ZM322.536 11.21H320.216V13.21H322.536V11.21ZM320.216 11.21C319.568 11.21 318.963 11.2713 318.409 11.4047L318.876 13.3492C319.248 13.26 319.691 13.21 320.216 13.21V11.21ZM318.409 11.4047C317.864 11.5357 317.363 11.731 316.928 12.0079L318.002 13.6952C318.211 13.562 318.496 13.4408 318.876 13.3492L318.409 11.4047ZM316.928 12.0079C316.497 12.2823 316.132 12.6308 315.871 13.0639L317.582 14.0982C317.661 13.9688 317.788 13.8309 318.002 13.6952L316.928 12.0079ZM315.871 13.0639C315.6 13.5122 315.472 14.0097 315.472 14.5303H317.472C317.472 14.3478 317.513 14.2124 317.582 14.0982L315.871 13.0639ZM315.472 14.5303C315.472 15.082 315.622 15.602 315.917 16.0681L317.606 14.9964C317.515 14.8531 317.472 14.7051 317.472 14.5303H315.472ZM315.917 16.0681C316.215 16.5365 316.627 16.8953 317.12 17.1501L318.038 15.3733C317.828 15.2649 317.695 15.1373 317.606 14.9964L315.917 16.0681ZM317.132 17.1561C317.645 17.4127 318.21 17.5254 318.801 17.5254V15.5254C318.466 15.5254 318.216 15.4623 318.026 15.3673L317.132 17.1561ZM318.801 17.5254C319.548 17.5254 320.25 17.3972 320.887 17.1136L320.072 15.2868C319.736 15.4368 319.319 15.5254 318.801 15.5254V17.5254ZM320.892 17.1113C321.502 16.8354 322.032 16.4561 322.466 15.9688L320.972 14.6386C320.738 14.9014 320.442 15.1197 320.067 15.2891L320.892 17.1113ZM322.471 15.963C322.901 15.4727 323.212 14.9073 323.405 14.2779L321.492 13.6928C321.38 14.0594 321.205 14.373 320.967 14.6444L322.471 15.963ZM321.592 14.502L321.9 15.0118L323.612 13.9785L323.304 13.4687L321.592 14.502ZM321.804 14.1897C321.737 14.3988 321.626 14.6291 321.458 14.8808L323.122 15.9902C323.376 15.6092 323.576 15.2126 323.708 14.8005L321.804 14.1897ZM321.458 14.8808C321.312 15.1001 321.114 15.3145 320.853 15.5208L322.092 17.0905C322.499 16.7694 322.846 16.4038 323.122 15.9902L321.458 14.8808ZM320.862 15.5141C320.62 15.7009 320.321 15.8651 319.953 15.9987L320.637 17.8783C321.172 17.6838 321.658 17.4261 322.084 17.0973L320.862 15.5141ZM319.964 15.9948C319.638 16.1091 319.24 16.1758 318.757 16.1758V18.1758C319.422 18.1758 320.049 18.0843 320.626 17.8821L319.964 15.9948ZM318.757 16.1758C318.277 16.1758 317.906 16.0875 317.617 15.9451L316.732 17.7385C317.346 18.0414 318.03 18.1758 318.757 18.1758V16.1758ZM317.631 15.9521C317.333 15.7989 317.128 15.6069 316.985 15.379L315.29 16.4413C315.64 16.9986 316.126 17.4276 316.718 17.7315L317.631 15.9521ZM316.988 15.3847C316.849 15.158 316.769 14.889 316.769 14.5479H314.769C314.769 15.2262 314.935 15.8654 315.287 16.4356L316.988 15.3847ZM316.769 14.5479C316.769 14.2659 316.831 14.0315 316.944 13.8246L315.191 12.8629C314.906 13.3825 314.769 13.9508 314.769 14.5479H316.769ZM316.944 13.8246C317.061 13.6115 317.236 13.4142 317.495 13.2362L316.362 11.5881C315.871 11.9256 315.472 12.3495 315.191 12.8629L316.944 13.8246ZM317.498 13.2343C317.762 13.0514 318.106 12.8958 318.551 12.7846L318.066 10.8443C317.433 11.0026 316.857 11.2455 316.36 11.5899L317.498 13.2343ZM318.558 12.7827C319.007 12.667 319.533 12.6035 320.146 12.6035V10.6035C319.398 10.6035 318.7 10.6807 318.059 10.8462L318.558 12.7827ZM320.146 12.6035H322.519V10.6035H320.146V12.6035ZM331.527 13.8008L330.644 14.2704L330.648 14.2777L330.652 14.2848L331.527 13.8008ZM330.71 13.0273L330.188 13.8803L330.194 13.8837L330.71 13.0273ZM328.996 12.4209L328.781 13.3976L328.782 13.3978L328.996 12.4209ZM327.581 12.0342L327.253 12.9787L327.257 12.9801L327.581 12.0342ZM326.562 11.5244L325.964 12.3265L325.975 12.3346L326.562 11.5244ZM325.938 10.7949L325.036 11.227L325.039 11.2346L325.043 11.2421L325.938 10.7949ZM326.597 8.04395L327.217 8.82799L327.219 8.82637L326.597 8.04395ZM330.824 7.6748L330.398 8.57947L330.41 8.58517L330.824 7.6748ZM332.011 8.65039L331.177 9.20239L331.181 9.20782L332.011 8.65039ZM332.424 10.083V11.083H333.424V10.083H332.424ZM331.721 10.083H330.721V11.083H331.721V10.083ZM330.473 8.26367L330.02 9.1555L330.028 9.15941L330.036 9.16318L330.473 8.26367ZM326.693 8.92285L325.845 8.39284L325.842 8.39774L326.693 8.92285ZM326.535 10.4082L325.584 10.716L325.589 10.7331L325.595 10.7499L326.535 10.4082ZM327.766 11.4189L327.379 12.3412L327.392 12.3464L327.766 11.4189ZM329.181 11.832L329.398 10.856L329.398 10.8558L329.181 11.832ZM331.044 12.4561L330.588 13.3461L330.597 13.3505L331.044 12.4561ZM332.107 13.3438L331.269 13.8888L331.273 13.8952L332.107 13.3438ZM332.213 15.6553L333.104 16.1092L333.107 16.1025L332.213 15.6553ZM331.527 16.4639L330.92 15.6695L330.912 15.6754L331.527 16.4639ZM327.062 16.8066L326.639 17.7126L326.651 17.718L327.062 16.8066ZM325.832 15.8135L325.002 16.3709L325.007 16.379L325.832 15.8135ZM325.419 14.4863V13.4863H324.419V14.4863H325.419ZM326.122 14.4863L327.119 14.4079L327.047 13.4863H326.122V14.4863ZM326.632 15.7168L325.925 16.4239L325.932 16.4307L326.632 15.7168ZM327.739 16.3496L327.466 17.3116L327.47 17.3126L327.739 16.3496ZM330.534 16.2617L330.949 17.1716L330.955 17.1689L330.534 16.2617ZM331.448 15.5498L332.262 16.1311L332.267 16.1233L331.448 15.5498ZM332.756 14.6357C332.756 14.1658 332.627 13.7223 332.402 13.3167L330.652 14.2848C330.733 14.43 330.756 14.5432 330.756 14.6357H332.756ZM332.41 13.3312C332.147 12.8361 331.709 12.4619 331.226 12.171L330.194 13.8837C330.508 14.0733 330.615 14.2147 330.644 14.2704L332.41 13.3312ZM331.232 12.1744C330.702 11.8499 330.006 11.6182 329.21 11.444L328.782 13.3978C329.486 13.5517 329.933 13.7243 330.188 13.8803L331.232 12.1744ZM329.211 11.4442C328.706 11.3332 328.272 11.2139 327.905 11.0882L327.257 12.9801C327.711 13.1357 328.22 13.2742 328.781 13.3976L329.211 11.4442ZM327.91 11.0897C327.575 10.9732 327.327 10.8438 327.148 10.7142L325.975 12.3346C326.347 12.6035 326.779 12.814 327.253 12.9787L327.91 11.0897ZM327.159 10.7224C326.997 10.602 326.896 10.4765 326.832 10.3477L325.043 11.2421C325.26 11.6758 325.575 12.0367 325.964 12.3265L327.159 10.7224ZM326.839 10.3628C326.784 10.2467 326.735 10.0648 326.735 9.78418H324.735C324.735 10.2887 324.822 10.7807 325.036 11.227L326.839 10.3628ZM326.735 9.78418C326.735 9.59358 326.775 9.42518 326.853 9.26633L325.057 8.38601C324.842 8.82482 324.735 9.29509 324.735 9.78418H326.735ZM326.853 9.26633C326.929 9.11158 327.044 8.96545 327.217 8.82799L325.976 7.2599C325.587 7.56775 325.274 7.9431 325.057 8.38601L326.853 9.26633ZM327.219 8.82637C327.4 8.68242 327.633 8.55635 327.933 8.45926L327.317 6.55637C326.82 6.71708 326.367 6.94843 325.974 7.26152L327.219 8.82637ZM327.933 8.45926C328.214 8.36829 328.559 8.31445 328.979 8.31445V6.31445C328.391 6.31445 327.833 6.38952 327.317 6.55637L327.933 8.45926ZM328.979 8.31445C329.592 8.31445 330.053 8.41696 330.398 8.57939L331.251 6.77022C330.576 6.45218 329.807 6.31445 328.979 6.31445V8.31445ZM330.41 8.58517C330.779 8.75265 331.019 8.96325 331.177 9.20238L332.845 8.0984C332.452 7.5055 331.901 7.06571 331.238 6.76444L330.41 8.58517ZM331.181 9.20782C331.334 9.43631 331.424 9.71533 331.424 10.083H333.424C333.424 9.36084 333.238 8.68479 332.841 8.09296L331.181 9.20782ZM332.424 9.08301H331.721V11.083H332.424V9.08301ZM332.721 10.083C332.721 9.5106 332.554 8.97584 332.241 8.49824L330.568 9.59356C330.677 9.76049 330.721 9.91714 330.721 10.083H332.721ZM332.241 8.49824C331.914 7.99893 331.452 7.62773 330.91 7.36416L330.036 9.16318C330.313 9.29806 330.473 9.44834 330.568 9.59356L332.241 8.49824ZM330.925 7.37184C330.344 7.07732 329.681 6.95605 328.979 6.95605V8.95605C329.459 8.95605 329.792 9.03987 330.02 9.1555L330.925 7.37184ZM328.979 6.95605C328.291 6.95605 327.64 7.05885 327.084 7.32853L327.955 9.1285C328.149 9.0349 328.471 8.95605 328.979 8.95605V6.95605ZM327.084 7.32853C326.582 7.57134 326.144 7.91563 325.845 8.39285L327.541 9.45285C327.595 9.36757 327.707 9.24898 327.955 9.1285L327.084 7.32853ZM325.842 8.39774C325.588 8.81039 325.438 9.27125 325.438 9.7666H327.438C327.438 9.68774 327.459 9.5861 327.544 9.44796L325.842 8.39774ZM325.438 9.7666C325.438 10.0901 325.484 10.4087 325.584 10.716L327.487 10.1004C327.457 10.0093 327.438 9.90011 327.438 9.7666H325.438ZM325.595 10.7499C325.737 11.1405 325.988 11.4563 326.284 11.7068L327.578 10.1818C327.532 10.1429 327.506 10.1127 327.491 10.0936C327.485 10.0841 327.48 10.0773 327.478 10.0731C327.476 10.0689 327.475 10.0668 327.475 10.0665L325.595 10.7499ZM326.284 11.7068C326.586 11.9632 326.967 12.1686 327.379 12.3411L328.152 10.4968C327.837 10.3646 327.662 10.2536 327.578 10.1818L326.284 11.7068ZM327.392 12.3464C327.825 12.521 328.354 12.6728 328.964 12.8082L329.398 10.8558C328.847 10.7334 328.433 10.6098 328.14 10.4915L327.392 12.3464ZM328.963 12.808C329.675 12.9669 330.208 13.1516 330.588 13.3461L331.5 11.566C330.919 11.2683 330.21 11.037 329.398 10.856L328.963 12.808ZM330.597 13.3505C330.962 13.5331 331.161 13.7228 331.269 13.8887L332.946 12.7988C332.597 12.2616 332.087 11.8595 331.491 11.5616L330.597 13.3505ZM331.273 13.8952C331.372 14.0449 331.45 14.2676 331.45 14.6182H333.45C333.45 13.9609 333.3 13.334 332.942 12.7923L331.273 13.8952ZM331.45 14.6182C331.45 14.8475 331.403 15.0388 331.318 15.2081L333.107 16.1025C333.339 15.6389 333.45 15.1388 333.45 14.6182H331.45ZM331.322 15.2013C331.237 15.3683 331.11 15.5245 330.92 15.6695L332.135 17.2582C332.543 16.9462 332.873 16.5634 333.104 16.1092L331.322 15.2013ZM330.912 15.6754C330.736 15.8132 330.497 15.9373 330.175 16.0312L330.735 17.9512C331.257 17.7991 331.733 17.5716 332.142 17.2524L330.912 15.6754ZM330.175 16.0312C329.858 16.1236 329.486 16.1758 329.049 16.1758V18.1758C329.643 18.1758 330.208 18.1049 330.735 17.9512L330.175 16.0312ZM329.049 16.1758C328.37 16.1758 327.857 16.0681 327.474 15.8953L326.651 17.718C327.358 18.0374 328.169 18.1758 329.049 18.1758V16.1758ZM327.486 15.9007C327.077 15.7095 326.819 15.4843 326.657 15.2479L325.007 16.379C325.408 16.963 325.97 17.3999 326.639 17.7126L327.486 15.9007ZM326.662 15.256C326.493 15.0036 326.419 14.754 326.419 14.4863H324.419C324.419 15.1679 324.621 15.8031 325.002 16.3709L326.662 15.256ZM325.419 15.4863H326.122V13.4863H325.419V15.4863ZM325.125 14.5647C325.18 15.2652 325.42 15.9194 325.925 16.4239L327.339 15.0097C327.246 14.9165 327.146 14.7505 327.119 14.4079L325.125 14.5647ZM325.932 16.4307C326.362 16.8533 326.881 17.1456 327.466 17.3116L328.012 15.3876C327.73 15.3076 327.511 15.178 327.332 15.0029L325.932 16.4307ZM327.47 17.3126C327.992 17.4589 328.519 17.5342 329.049 17.5342V15.5342C328.711 15.5342 328.365 15.4864 328.009 15.3866L327.47 17.3126ZM329.049 17.5342C329.736 17.5342 330.383 17.4296 330.949 17.1716L330.119 15.3518C329.888 15.4571 329.545 15.5342 329.049 15.5342V17.5342ZM330.955 17.1689C331.476 16.9274 331.933 16.5914 332.262 16.131L330.635 14.9686C330.553 15.0824 330.401 15.221 330.113 15.3545L330.955 17.1689ZM332.267 16.1233C332.574 15.685 332.756 15.1834 332.756 14.6357H330.756C330.756 14.7209 330.732 14.8287 330.629 14.9763L332.267 16.1233ZM335.79 7.49023H336.79V6.49023H335.79V7.49023ZM335.79 17V18H336.79V17H335.79ZM335.087 17H334.087V18H335.087V17ZM335.087 7.49023V6.49023H334.087V7.49023H335.087ZM335.025 4.20312L334.3 3.51437L334.299 3.51538L335.025 4.20312ZM335.86 4.20312L335.135 4.89187L335.144 4.90117L335.153 4.91023L335.86 4.20312ZM335.86 5.01172L336.548 5.73767L336.558 5.72838L336.567 5.71883L335.86 5.01172ZM335.025 5.01172L334.299 5.69946L334.318 5.71908L334.338 5.73767L335.025 5.01172ZM334.79 7.49023V17H336.79V7.49023H334.79ZM335.79 16H335.087V18H335.79V16ZM336.087 17V7.49023H334.087V17H336.087ZM335.087 8.49023H335.79V6.49023H335.087V8.49023ZM335.867 4.60742C335.867 4.64136 335.861 4.69298 335.838 4.75209C335.815 4.81176 335.782 4.85864 335.751 4.89087L334.299 3.51538C334.012 3.81887 333.867 4.20232 333.867 4.60742H335.867ZM335.75 4.89187C335.716 4.92797 335.665 4.96688 335.599 4.99437C335.534 5.0214 335.479 5.02734 335.447 5.02734V3.02734C335.019 3.02734 334.611 3.18732 334.3 3.51438L335.75 4.89187ZM335.447 5.02734C335.408 5.02734 335.348 5.01971 335.282 4.99144C335.215 4.96303 335.166 4.92436 335.135 4.89187L336.585 3.51438C336.282 3.19511 335.881 3.02734 335.447 3.02734V5.02734ZM335.153 4.91023C335.123 4.8803 335.088 4.83319 335.061 4.76946C335.035 4.70582 335.027 4.64809 335.027 4.60742H337.027C337.027 4.18545 336.867 3.7959 336.567 3.49602L335.153 4.91023ZM335.027 4.60742C335.027 4.56676 335.035 4.50902 335.061 4.44539C335.088 4.38166 335.123 4.33455 335.153 4.30461L336.567 5.71883C336.867 5.41894 337.027 5.0294 337.027 4.60742H335.027ZM335.173 4.28577C335.208 4.25189 335.257 4.21899 335.316 4.19651C335.373 4.1745 335.421 4.16992 335.447 4.16992V6.16992C335.848 6.16992 336.237 6.03215 336.548 5.73767L335.173 4.28577ZM335.447 4.16992C335.467 4.16992 335.51 4.17315 335.565 4.19404C335.623 4.21561 335.674 4.24857 335.713 4.28577L334.338 5.73767C334.655 6.03875 335.052 6.16992 335.447 6.16992V4.16992ZM335.751 4.32397C335.782 4.3562 335.815 4.40308 335.838 4.46275C335.861 4.52186 335.867 4.57348 335.867 4.60742H333.867C333.867 5.01252 334.012 5.39598 334.299 5.69946L335.751 4.32397ZM343.507 16.2705L343.127 15.3456L343.122 15.3474L343.507 16.2705ZM344.57 15.4707L343.786 14.8506L343.784 14.8523L344.57 15.4707ZM345.054 14.0908V13.0908H344.115L344.056 14.0278L345.054 14.0908ZM345.739 14.0908L346.738 14.1371L346.787 13.0908H345.739V14.0908ZM345.194 15.7344L346.002 16.3244L346.005 16.3195L345.194 15.7344ZM340.466 16.8242L340.036 17.7271L340.04 17.729L340.466 16.8242ZM338.462 14.3281L337.502 14.6093L337.506 14.6208L338.462 14.3281ZM338.462 10.1709L337.505 9.88089L337.503 9.88714L338.462 10.1709ZM340.457 7.66602L340.027 6.76315L340.023 6.76517L340.457 7.66602ZM343.902 7.70996L343.459 8.60639L343.467 8.61025L343.902 7.70996ZM345.194 8.84375L344.359 9.39396L344.367 9.40525L345.194 8.84375ZM345.739 10.6543V11.6543H346.781L346.738 10.6133L345.739 10.6543ZM345.054 10.6543L344.055 10.7042L344.102 11.6543H345.054V10.6543ZM343.551 8.27246L343.113 9.17175L343.123 9.17645L343.551 8.27246ZM339.675 9.17773L340.493 9.75293L340.497 9.74694L339.675 9.17773ZM339.095 10.4873L340.065 10.7298L340.066 10.7272L339.095 10.4873ZM339.095 14.0205L338.124 14.2604L338.125 14.263L339.095 14.0205ZM340.686 16.209L340.218 17.0931L340.223 17.0958L340.686 16.209ZM342.162 17.5342C342.764 17.5342 343.343 17.4221 343.891 17.1936L343.122 15.3474C342.827 15.4705 342.51 15.5342 342.162 15.5342V17.5342ZM343.887 17.1954C344.471 16.9553 344.966 16.5843 345.356 16.0891L343.784 14.8523C343.612 15.0719 343.398 15.2341 343.127 15.3456L343.887 17.1954ZM345.355 16.0908C345.792 15.5376 346.006 14.8713 346.052 14.1539L344.056 14.0278C344.031 14.4236 343.923 14.6773 343.786 14.8506L345.355 16.0908ZM345.054 15.0908H345.739V13.0908H345.054V15.0908ZM344.74 14.0446C344.719 14.5054 344.591 14.8609 344.383 15.1493L346.005 16.3195C346.465 15.682 346.701 14.9419 346.738 14.1371L344.74 14.0446ZM344.387 15.1444C344.154 15.4633 343.854 15.7125 343.471 15.8955L344.333 17.7002C345.005 17.3793 345.567 16.9195 346.002 16.3244L344.387 15.1444ZM343.471 15.8955C343.089 16.078 342.658 16.1758 342.162 16.1758V18.1758C342.932 18.1758 343.661 18.0216 344.333 17.7002L343.471 15.8955ZM342.162 16.1758C341.655 16.1758 341.238 16.0824 340.892 15.9194L340.04 17.729C340.69 18.0348 341.404 18.1758 342.162 18.1758V16.1758ZM340.896 15.9214C340.543 15.7534 340.253 15.5205 340.015 15.2156L338.438 16.4465C338.868 16.9971 339.404 17.4263 340.036 17.7271L340.896 15.9214ZM340.015 15.2156C339.764 14.894 339.562 14.5051 339.418 14.0354L337.506 14.6208C337.713 15.2996 338.022 15.9126 338.438 16.4465L340.015 15.2156ZM339.422 14.047C339.282 13.5695 339.207 13.0326 339.207 12.4297H337.207C337.207 13.1979 337.302 13.9266 337.502 14.6092L339.422 14.047ZM339.207 12.4297V12.0605H337.207V12.4297H339.207ZM339.207 12.0605C339.207 11.4574 339.282 10.9245 339.421 10.4547L337.503 9.88714C337.302 10.5657 337.207 11.2926 337.207 12.0605H339.207ZM339.419 10.4609C339.563 9.98505 339.765 9.5945 340.015 9.27461L338.438 8.04375C338.02 8.57933 337.712 9.1966 337.505 9.88089L339.419 10.4609ZM340.015 9.27461C340.255 8.96729 340.544 8.73419 340.891 8.56686L340.023 6.76517C339.397 7.06659 338.866 7.4956 338.438 8.04375L340.015 9.27461ZM340.887 8.56888C341.225 8.40797 341.637 8.31445 342.145 8.31445V6.31445C341.387 6.31445 340.674 6.45531 340.027 6.76315L340.887 8.56888ZM342.145 8.31445C342.641 8.31445 343.074 8.41579 343.459 8.60635L344.346 6.81357C343.665 6.47679 342.925 6.31445 342.145 6.31445V8.31445ZM343.467 8.61025C343.837 8.78896 344.13 9.04537 344.359 9.39391L346.029 8.29359C345.603 7.64603 345.034 7.14659 344.338 6.80968L343.467 8.61025ZM344.367 9.40525C344.577 9.71459 344.717 10.1285 344.74 10.6952L346.738 10.6133C346.703 9.75039 346.48 8.95728 346.022 8.28225L344.367 9.40525ZM345.739 9.6543H345.054V11.6543H345.739V9.6543ZM346.052 10.6044C346.016 9.876 345.826 9.19733 345.434 8.61742L343.777 9.73804C343.924 9.95502 344.033 10.2607 344.055 10.7042L346.052 10.6044ZM345.434 8.61742C345.064 8.07106 344.574 7.65038 343.978 7.36847L343.123 9.17645C343.394 9.30469 343.608 9.48754 343.777 9.73804L345.434 8.61742ZM343.988 7.37323C343.412 7.09298 342.793 6.95605 342.145 6.95605V8.95605C342.504 8.95605 342.822 9.03007 343.113 9.1717L343.988 7.37323ZM342.145 6.95605C341.453 6.95605 340.8 7.08969 340.218 7.39716L341.153 9.16535C341.391 9.03922 341.711 8.95605 342.145 8.95605V6.95605ZM340.218 7.39716C339.666 7.68881 339.208 8.09555 338.853 8.60852L340.497 9.74694C340.669 9.4982 340.884 9.30729 341.153 9.16535L340.218 7.39716ZM338.857 8.60256C338.514 9.09027 338.273 9.6434 338.124 10.2475L340.066 10.7272C340.162 10.3351 340.308 10.0152 340.493 9.75291L338.857 8.60256ZM338.125 10.2448C337.98 10.8235 337.91 11.43 337.91 12.0605H339.91C339.91 11.5778 339.963 11.1354 340.065 10.7298L338.125 10.2448ZM337.91 12.0605V12.4297H339.91V12.0605H337.91ZM337.91 12.4297C337.91 13.0653 337.98 13.6767 338.124 14.2604L340.066 13.7807C339.964 13.3682 339.91 12.919 339.91 12.4297H337.91ZM338.125 14.263C338.274 14.8618 338.515 15.4107 338.857 15.8965L340.493 14.7461C340.307 14.4819 340.161 14.1636 340.065 13.778L338.125 14.263ZM338.857 15.8965C339.212 16.4023 339.67 16.8034 340.218 17.0931L341.153 15.3249C340.881 15.181 340.665 14.9903 340.493 14.7461L338.857 15.8965ZM340.223 17.0958C340.809 17.4011 341.467 17.5342 342.162 17.5342V15.5342C341.721 15.5342 341.394 15.4505 341.148 15.3222L340.223 17.0958Z" fill="#F8E87C"/>
</svg>
