<svg width="41" height="40" viewBox="0 0 41 40" fill="none" xmlns="http://www.w3.org/2000/svg">
<path d="M40.8989 20C40.8989 8.95312 31.9458 0 20.8989 0C9.85205 0 0.898926 8.95312 0.898926 20C0.898926 31.0469 9.85205 40 20.8989 40C21.0161 40 21.1333 40 21.2505 39.9922V24.4297H16.9536V19.4219H21.2505V15.7344C21.2505 11.4609 23.8599 9.13281 27.6724 9.13281C29.5005 9.13281 31.0708 9.26562 31.5239 9.32812V13.7969H28.8989C26.8286 13.7969 26.4224 14.7812 26.4224 16.2266V19.4141H31.3833L30.7349 24.4219H26.4224V39.2266C34.7817 36.8281 40.8989 29.1328 40.8989 20Z" fill="#004F9C"/>
</svg>
