<svg width="41" height="40" viewBox="0 0 41 40" fill="none" xmlns="http://www.w3.org/2000/svg">
<path d="M19.772 16.4229L13.2913 23.2844L19.1891 20.0483L22.2708 23.2844L28.7151 16.4229L22.8826 19.6022L19.772 16.4229Z" fill="#004F9C"/>
<path d="M20.8989 0C9.85492 0 0.898926 8.95599 0.898926 20C0.898926 31.044 9.85492 40 20.8989 40C31.9429 40 40.8989 31.044 40.8989 20C40.8989 8.95599 31.9429 0 20.8989 0ZM21.0552 30.7059C19.8171 30.7059 18.622 30.531 17.4977 30.2072L13.4645 32.5V28.1866C10.7631 26.131 9.03796 23.0002 9.03796 19.4937C9.03796 13.3011 14.4182 8.28125 21.0552 8.28125C27.6924 8.28125 33.0724 13.3011 33.0724 19.4937C33.0724 25.6857 27.6924 30.7059 21.0552 30.7059Z" fill="#004F9C"/>
</svg>
