<svg width="41" height="40" viewBox="0 0 41 40" fill="none" xmlns="http://www.w3.org/2000/svg">
<path d="M24.1976 20C24.1976 22.1143 22.4838 23.8281 20.3695 23.8281C18.2552 23.8281 16.5414 22.1143 16.5414 20C16.5414 17.8857 18.2552 16.1719 20.3695 16.1719C22.4838 16.1719 24.1976 17.8857 24.1976 20Z" fill="#004F9C"/>
<path d="M29.3221 13.2269C29.1381 12.7282 28.8445 12.2769 28.4631 11.9064C28.0926 11.5249 27.6415 11.2313 27.1426 11.0473C26.7379 10.8901 26.13 10.7031 25.0103 10.6521C23.7991 10.5969 23.4359 10.585 20.3695 10.585C17.3028 10.585 16.9396 10.5966 15.7287 10.6518C14.609 10.7031 14.0008 10.8901 13.5964 11.0473C13.0975 11.2313 12.6461 11.5249 12.2759 11.9064C11.8945 12.2769 11.6009 12.7279 11.4166 13.2269C11.2594 13.6315 11.0723 14.2397 11.0214 15.3594C10.9661 16.5704 10.9542 16.9335 10.9542 20.0002C10.9542 23.0667 10.9661 23.4298 11.0214 24.6411C11.0723 25.7607 11.2594 26.3687 11.4166 26.7733C11.6009 27.2723 11.8942 27.7233 12.2756 28.0938C12.6461 28.4753 13.0972 28.7689 13.5961 28.9529C14.0008 29.1104 14.609 29.2974 15.7287 29.3484C16.9396 29.4036 17.3025 29.4152 20.3692 29.4152C23.4362 29.4152 23.7994 29.4036 25.01 29.3484C26.1297 29.2974 26.7379 29.1104 27.1426 28.9529C28.1442 28.5665 28.9358 27.7749 29.3221 26.7733C29.4793 26.3687 29.6664 25.7607 29.7177 24.6411C29.7729 23.4298 29.7845 23.0667 29.7845 20.0002C29.7845 16.9335 29.7729 16.5704 29.7177 15.3594C29.6667 14.2397 29.4796 13.6315 29.3221 13.2269ZM20.3695 25.8972C17.1124 25.8972 14.472 23.2571 14.472 19.9999C14.472 16.7428 17.1124 14.1027 20.3695 14.1027C23.6263 14.1027 26.2667 16.7428 26.2667 19.9999C26.2667 23.2571 23.6263 25.8972 20.3695 25.8972ZM26.4999 15.2477C25.7388 15.2477 25.1217 14.6307 25.1217 13.8696C25.1217 13.1085 25.7388 12.4914 26.4999 12.4914C27.261 12.4914 27.8781 13.1085 27.8781 13.8696C27.8777 14.6307 27.261 15.2477 26.4999 15.2477Z" fill="#004F9C"/>
<path d="M20.3695 0C9.3255 0 0.369507 8.95599 0.369507 20C0.369507 31.044 9.3255 40 20.3695 40C31.4135 40 40.3695 31.044 40.3695 20C40.3695 8.95599 31.4135 0 20.3695 0ZM31.7846 24.7348C31.7291 25.9573 31.5347 26.792 31.2509 27.5226C30.6542 29.0652 29.4348 30.2847 27.8921 30.8813C27.1618 31.1652 26.3268 31.3593 25.1046 31.4151C23.8799 31.4709 23.4887 31.4844 20.3698 31.4844C17.2506 31.4844 16.8597 31.4709 15.6347 31.4151C14.4125 31.3593 13.5775 31.1652 12.8472 30.8813C12.0806 30.593 11.3867 30.141 10.8129 29.5566C10.2288 28.9832 9.77686 28.2889 9.48846 27.5226C9.20465 26.7923 9.01025 25.9573 8.95471 24.7351C8.89825 23.5101 8.88513 23.1189 8.88513 20C8.88513 16.8811 8.89825 16.4899 8.95441 15.2652C9.00995 14.0427 9.20404 13.208 9.48785 12.4774C9.77625 11.7111 10.2285 11.0168 10.8129 10.4434C11.3864 9.85901 12.0806 9.40704 12.8469 9.11865C13.5775 8.83484 14.4122 8.64075 15.6347 8.5849C16.8594 8.52905 17.2506 8.51562 20.3695 8.51562C23.4884 8.51562 23.8796 8.52905 25.1043 8.58521C26.3268 8.64075 27.1615 8.83484 27.8921 9.11835C28.6584 9.40674 29.3527 9.85901 29.9264 10.4434C30.5105 11.0172 30.9628 11.7111 31.2509 12.4774C31.535 13.208 31.7291 14.0427 31.7849 15.2652C31.8408 16.4899 31.8539 16.8811 31.8539 20C31.8539 23.1189 31.8408 23.5101 31.7846 24.7348Z" fill="#004F9C"/>
</svg>
