<svg width="41" height="40" viewBox="0 0 41 40" fill="none" xmlns="http://www.w3.org/2000/svg">
<path d="M24.5574 26.8241C23.6615 27.7201 21.7416 28.0399 20.3735 28.0399C19.0014 28.0399 17.0855 27.7201 16.1895 26.8241C15.9774 26.612 15.6375 26.612 15.4257 26.8241C15.2136 27.0362 15.2136 27.3762 15.4257 27.588C16.8457 29.0079 19.5736 29.1199 20.3735 29.1199C21.1734 29.1199 23.8974 29.0079 25.3216 27.588C25.5294 27.3759 25.5294 27.0359 25.3216 26.8241C25.1095 26.612 24.7695 26.612 24.5574 26.8241Z" fill="#004F9C"/>
<path d="M17.8695 22.084C17.8695 20.936 16.9335 20 15.7855 20C14.6377 20 13.7014 20.936 13.7014 22.084C13.7014 23.2318 14.6377 24.1681 15.7855 24.1681C16.9335 24.1681 17.8695 23.2321 17.8695 22.084Z" fill="#004F9C"/>
<path d="M20.3695 0C9.3255 0 0.369507 8.95599 0.369507 20C0.369507 31.044 9.3255 40 20.3695 40C31.4135 40 40.3695 31.044 40.3695 20C40.3695 8.95599 31.4135 0 20.3695 0ZM31.9735 22.6678C32.0175 22.9559 32.0416 23.248 32.0416 23.544C32.0416 28.0319 26.8176 31.6681 20.3735 31.6681C13.9294 31.6681 8.70538 28.0319 8.70538 23.544C8.70538 23.244 8.72949 22.948 8.77344 22.6599C7.75751 22.204 7.0495 21.1841 7.0495 20C7.0495 18.392 8.35352 17.084 9.96545 17.084C10.7495 17.084 11.4575 17.392 11.9814 17.8961C14.0054 16.4362 16.8057 15.5038 19.9215 15.4239C19.9215 15.3839 21.3775 8.44788 21.3775 8.44788C21.4056 8.31207 21.4855 8.1958 21.6015 8.12012C21.7175 8.04413 21.8575 8.02002 21.9937 8.0481L26.8417 9.0799C27.1816 8.39203 27.8814 7.91595 28.7014 7.91595C29.8535 7.91595 30.7855 8.84796 30.7855 10C30.7855 11.152 29.8535 12.084 28.7014 12.084C27.5854 12.084 26.6815 11.2039 26.6296 10.1001L22.2894 9.17603L20.9615 15.4282C24.0215 15.5359 26.7697 16.4639 28.7615 17.9041C29.2855 17.3962 29.9975 17.084 30.7855 17.084C32.3977 17.084 33.7014 18.3881 33.7014 20C33.7014 21.192 32.9855 22.2119 31.9735 22.6678Z" fill="#004F9C"/>
<path d="M24.9536 20C23.8055 20 22.8695 20.936 22.8695 22.084C22.8695 23.2318 23.8055 24.1681 24.9536 24.1681C26.1013 24.1681 27.0376 23.2318 27.0376 22.084C27.0376 20.936 26.1016 20 24.9536 20Z" fill="#004F9C"/>
</svg>
