<svg width="41" height="40" viewBox="0 0 41 40" fill="none" xmlns="http://www.w3.org/2000/svg">
<circle cx="20.8989" cy="20" r="20" fill="#004F9C"/>
<path d="M31.0662 13.2601C22.082 9.24247 14.2209 11.5861 11.4133 13.2601C13.1412 11.5489 16.3369 10.563 17.7188 10.284L17.4427 10.005C14.5707 9.89344 11.6434 11.6635 10.5388 12.5625C7.48274 18.5517 6.84145 24.327 6.90281 26.466C8.59655 29.1444 12.5793 29.938 14.359 30L15.9238 28.0005C13.8987 27.4797 12.2878 25.9855 11.7355 25.3035C20.3883 29.9163 28.1666 27.1015 30.9742 25.1175C29.98 26.5683 27.645 27.551 26.6018 27.861L28.1666 29.814C31.9591 30 34.9017 27.5975 35.8989 26.373C35.5675 19.7886 33.3675 14.4225 32.3089 12.5625C29.5106 10.4049 26.5711 9.95853 25.4511 10.005L25.0829 10.377C27.6603 11.0838 30.1457 12.5936 31.0662 13.2601Z" fill="#F2F7FD"/>
<path d="M26.1489 25C27.5268 25 28.6489 23.8785 28.6489 22.4953C28.6489 21.1215 27.5326 20 26.1489 20V20.0056C24.7768 20.0056 23.6528 21.1234 23.6489 22.5065C23.6489 23.8785 24.771 25 26.1489 25Z" fill="#004F9C"/>
<path d="M16.3989 25C17.7768 25 18.8989 23.8785 18.8989 22.4953C18.8989 21.1215 17.7846 20 16.4067 20L16.3989 20.0056C15.021 20.0056 13.8989 21.1234 13.8989 22.5065C13.8989 23.8785 15.021 25 16.3989 25Z" fill="#004F9C"/>
</svg>
