<svg width="41" height="40" viewBox="0 0 41 40" fill="none" xmlns="http://www.w3.org/2000/svg">
<path d="M20.8989 40C31.9473 40 40.8989 31.0483 40.8989 20C40.8989 8.95167 31.9473 0 20.8989 0C9.85059 0 0.898926 8.95167 0.898926 20C0.898926 31.0483 9.85059 40 20.8989 40ZM10.0506 19.5667L29.3339 12.1317C30.2289 11.8083 31.0106 12.35 30.7206 13.7033L30.7223 13.7017L27.4389 29.17C27.1956 30.2667 26.5439 30.5333 25.6323 30.0167L20.6323 26.3317L18.2206 28.655C17.9539 28.9217 17.7289 29.1467 17.2123 29.1467L17.5673 24.0583L26.8339 15.6867C27.2373 15.3317 26.7439 15.1317 26.2123 15.485L14.7606 22.695L9.82393 21.155C8.75226 20.815 8.72893 20.0833 10.0506 19.5667Z" fill="#004F9C"/>
</svg>
