<svg width="41" height="40" viewBox="0 0 41 40" fill="none" xmlns="http://www.w3.org/2000/svg">
<circle cx="20.8989" cy="20" r="20" fill="#004F9C"/>
<path d="M28.2686 19.6165C27.7542 18.9513 26.9779 18.4944 25.9399 18.2461C27.2618 17.5718 27.8427 16.4274 27.6832 14.8126C27.6299 14.2271 27.4681 13.7196 27.1974 13.2895C26.9265 12.8592 26.5609 12.5133 26.0993 12.2517C25.6381 11.9897 25.1364 11.7902 24.5956 11.6528C24.0545 11.5153 23.4334 11.4154 22.7325 11.3534V8H20.6834V11.2602C20.3286 11.2602 19.7875 11.2691 19.0601 11.2868V8H17.0107V11.3534C16.7179 11.3623 16.2877 11.3668 15.72 11.3668L12.8989 11.3534V13.5358H14.3759C15.0501 13.5358 15.4449 13.8375 15.5602 14.4406V18.2598C15.6491 18.2598 15.72 18.2644 15.7732 18.2733H15.5602V23.6225C15.4893 24.0748 15.2321 24.3012 14.7885 24.3012H13.3116L12.899 26.7364H15.5605C15.729 26.7364 15.9728 26.7387 16.2923 26.7427C16.6117 26.7471 16.8511 26.7494 17.0108 26.7494V30.1426H19.0605V26.7893C19.433 26.7984 19.9741 26.8027 20.6838 26.8027V30.1426H22.733V26.7494C23.4606 26.714 24.1059 26.6478 24.669 26.5498C25.2324 26.4519 25.7714 26.2991 26.2859 26.0905C26.8002 25.8822 27.2304 25.6225 27.5764 25.312C27.9225 25.0018 28.2083 24.6068 28.4349 24.1277C28.6608 23.6486 28.8051 23.0941 28.867 22.4641C28.9829 21.2313 28.7831 20.282 28.2686 19.6165ZM19.1 13.6818C19.1621 13.6818 19.3373 13.6795 19.6256 13.675C19.9141 13.6705 20.1535 13.6661 20.3442 13.6616C20.535 13.6572 20.7923 13.6683 21.1162 13.6949C21.44 13.7216 21.7127 13.7571 21.9344 13.8014C22.1562 13.8457 22.4003 13.9189 22.6662 14.0209C22.9326 14.1229 23.1454 14.2471 23.3049 14.3935C23.4647 14.5398 23.6 14.7262 23.7106 14.9524C23.8217 15.1786 23.8771 15.4381 23.8771 15.7308C23.8771 15.9792 23.8373 16.2055 23.7575 16.4097C23.6779 16.6137 23.5579 16.7845 23.3984 16.922C23.2388 17.0595 23.0744 17.1794 22.9058 17.2813C22.7374 17.3833 22.5221 17.4654 22.2605 17.5274C21.9989 17.5896 21.7705 17.6384 21.5754 17.6738C21.3802 17.7093 21.1363 17.7338 20.8435 17.747C20.5507 17.7602 20.3288 17.7693 20.1781 17.7737C20.0272 17.778 19.821 17.778 19.5592 17.7737C19.2974 17.7693 19.1446 17.7669 19.1001 17.7669V13.6817H19.1V13.6818ZM24.6958 22.7437C24.6113 22.9479 24.5028 23.1254 24.3698 23.2763C24.2366 23.4268 24.0613 23.5601 23.844 23.6752C23.6268 23.7907 23.4159 23.8837 23.2121 23.9547C23.0079 24.0259 22.7617 24.0877 22.4736 24.1411C22.1849 24.1944 21.9323 24.2319 21.7147 24.2542C21.4974 24.2764 21.2381 24.2941 20.9363 24.3075C20.6348 24.3206 20.3996 24.3273 20.2311 24.3273C20.0625 24.3273 19.8496 24.3249 19.5923 24.3206C19.3349 24.3164 19.1709 24.3142 19.0999 24.3142V19.8162C19.1707 19.8162 19.3815 19.8119 19.732 19.8028C20.0825 19.7939 20.3684 19.7898 20.5903 19.7898C20.812 19.7898 21.1182 19.8029 21.5087 19.8297C21.8988 19.8561 22.2271 19.8958 22.4934 19.9491C22.7595 20.0024 23.0498 20.0843 23.365 20.1953C23.6798 20.3062 23.935 20.4414 24.1302 20.6011C24.3254 20.7611 24.4894 20.9648 24.6224 21.2133C24.7558 21.4616 24.8223 21.7455 24.8223 22.065C24.8223 22.3136 24.7802 22.5395 24.6958 22.7437Z" fill="white"/>
</svg>
