<svg width="41" height="40" viewBox="0 0 41 40" fill="none" xmlns="http://www.w3.org/2000/svg">
<path d="M20.3696 0C9.32562 0 0.369629 8.95599 0.369629 20C0.369629 31.044 9.32562 40 20.3696 40C31.4136 40 40.3696 31.044 40.3696 20C40.3696 8.95599 31.4136 0 20.3696 0ZM14.5579 30.2344H9.68695V15.5801H14.5579V30.2344ZM12.1226 13.5791H12.0908C10.4563 13.5791 9.39917 12.4539 9.39917 11.0477C9.39917 9.60968 10.4886 8.51562 12.1549 8.51562C13.8212 8.51562 14.8466 9.60968 14.8783 11.0477C14.8783 12.4539 13.8212 13.5791 12.1226 13.5791ZM32.1213 30.2344H27.251V22.3947C27.251 20.4245 26.5458 19.0808 24.7834 19.0808C23.4379 19.0808 22.6365 19.9872 22.2843 20.8621C22.1555 21.1752 22.1241 21.6129 22.1241 22.0508V30.2344H17.2535C17.2535 30.2344 17.3173 16.955 17.2535 15.5801H22.1241V17.655C22.7714 16.6565 23.9295 15.2362 26.5137 15.2362C29.7184 15.2362 32.1213 17.3306 32.1213 21.8317V30.2344Z" fill="#004F9C"/>
</svg>
