<svg width="315" height="57" viewBox="0 0 315 57" fill="none" xmlns="http://www.w3.org/2000/svg">
<path d="M105.068 23.08C105.068 24.616 104.708 26.02 103.988 27.292C103.292 28.54 102.224 29.548 100.784 30.316C99.368 31.06 97.628 31.432 95.564 31.432H92.072V40H85.016V14.62H95.564C97.604 14.62 99.332 14.98 100.748 15.7C102.188 16.42 103.268 17.416 103.988 18.688C104.708 19.96 105.068 21.424 105.068 23.08ZM94.88 25.816C96.872 25.816 97.868 24.904 97.868 23.08C97.868 21.232 96.872 20.308 94.88 20.308H92.072V25.816H94.88ZM114.959 23.368C115.751 22.216 116.711 21.304 117.839 20.632C118.967 19.96 120.179 19.624 121.475 19.624V27.148H119.495C117.959 27.148 116.819 27.448 116.075 28.048C115.331 28.648 114.959 29.692 114.959 31.18V40H107.903V19.804H114.959V23.368ZM133.4 40.252C131.384 40.252 129.572 39.832 127.964 38.992C126.38 38.152 125.132 36.952 124.22 35.392C123.308 33.832 122.852 31.996 122.852 29.884C122.852 27.796 123.308 25.972 124.22 24.412C125.156 22.852 126.416 21.652 128 20.812C129.608 19.972 131.42 19.552 133.436 19.552C135.452 19.552 137.252 19.972 138.836 20.812C140.444 21.652 141.704 22.852 142.616 24.412C143.552 25.972 144.02 27.796 144.02 29.884C144.02 31.972 143.552 33.808 142.616 35.392C141.704 36.952 140.444 38.152 138.836 38.992C137.228 39.832 135.416 40.252 133.4 40.252ZM133.4 34.132C134.384 34.132 135.2 33.772 135.848 33.052C136.52 32.308 136.856 31.252 136.856 29.884C136.856 28.516 136.52 27.472 135.848 26.752C135.2 26.032 134.396 25.672 133.436 25.672C132.476 25.672 131.672 26.032 131.024 26.752C130.376 27.472 130.052 28.516 130.052 29.884C130.052 31.276 130.364 32.332 130.988 33.052C131.612 33.772 132.416 34.132 133.4 34.132ZM169.838 35.86H160.838L159.47 40H152.054L161.306 14.62H169.442L178.658 40H171.206L169.838 35.86ZM168.074 30.46L165.338 22.252L162.638 30.46H168.074ZM194.169 19.624C196.497 19.624 198.345 20.404 199.713 21.964C201.081 23.5 201.765 25.588 201.765 28.228V40H194.709V29.164C194.709 28.012 194.409 27.112 193.809 26.464C193.209 25.792 192.405 25.456 191.397 25.456C190.341 25.456 189.513 25.792 188.913 26.464C188.313 27.112 188.013 28.012 188.013 29.164V40H180.957V19.804H188.013V22.684C188.637 21.772 189.477 21.04 190.533 20.488C191.589 19.912 192.801 19.624 194.169 19.624ZM204.485 29.884C204.485 27.796 204.857 25.972 205.601 24.412C206.369 22.852 207.401 21.652 208.697 20.812C210.017 19.972 211.481 19.552 213.089 19.552C214.481 19.552 215.681 19.828 216.689 20.38C217.697 20.932 218.477 21.676 219.029 22.612V19.804H226.085V40H219.029V37.192C218.477 38.128 217.685 38.872 216.653 39.424C215.645 39.976 214.457 40.252 213.089 40.252C211.481 40.252 210.017 39.832 208.697 38.992C207.401 38.152 206.369 36.952 205.601 35.392C204.857 33.808 204.485 31.972 204.485 29.884ZM219.029 29.884C219.029 28.588 218.669 27.568 217.949 26.824C217.253 26.08 216.389 25.708 215.357 25.708C214.301 25.708 213.425 26.08 212.729 26.824C212.033 27.544 211.685 28.564 211.685 29.884C211.685 31.18 212.033 32.212 212.729 32.98C213.425 33.724 214.301 34.096 215.357 34.096C216.389 34.096 217.253 33.724 217.949 32.98C218.669 32.236 219.029 31.204 219.029 29.884ZM237.162 13.36V40H230.106V13.36H237.162ZM262.924 19.804L250.108 49.612H242.44L247.264 39.136L238.984 19.804H246.832L251.08 31.252L255.184 19.804H262.924ZM273.374 40.252C271.55 40.252 269.918 39.952 268.478 39.352C267.062 38.728 265.934 37.888 265.094 36.832C264.278 35.752 263.822 34.54 263.726 33.196H270.566C270.662 33.844 270.962 34.348 271.466 34.708C271.97 35.068 272.594 35.248 273.338 35.248C273.914 35.248 274.37 35.128 274.706 34.888C275.042 34.648 275.21 34.336 275.21 33.952C275.21 33.448 274.934 33.076 274.382 32.836C273.83 32.596 272.918 32.332 271.646 32.044C270.206 31.756 269.006 31.432 268.046 31.072C267.086 30.712 266.246 30.124 265.526 29.308C264.83 28.492 264.482 27.388 264.482 25.996C264.482 24.796 264.806 23.716 265.454 22.756C266.102 21.772 267.05 20.992 268.298 20.416C269.57 19.84 271.094 19.552 272.87 19.552C275.51 19.552 277.586 20.2 279.098 21.496C280.61 22.792 281.486 24.496 281.726 26.608H275.354C275.234 25.96 274.946 25.468 274.49 25.132C274.058 24.772 273.47 24.592 272.726 24.592C272.15 24.592 271.706 24.7 271.394 24.916C271.106 25.132 270.962 25.432 270.962 25.816C270.962 26.296 271.238 26.668 271.79 26.932C272.342 27.172 273.23 27.424 274.454 27.688C275.918 28 277.13 28.348 278.09 28.732C279.074 29.116 279.926 29.74 280.646 30.604C281.39 31.444 281.762 32.596 281.762 34.06C281.762 35.236 281.414 36.292 280.718 37.228C280.046 38.164 279.074 38.908 277.802 39.46C276.554 39.988 275.078 40.252 273.374 40.252ZM288.795 17.932C287.547 17.932 286.539 17.596 285.771 16.924C285.027 16.228 284.655 15.364 284.655 14.332C284.655 13.276 285.027 12.4 285.771 11.704C286.539 11.008 287.547 10.66 288.795 10.66C290.019 10.66 291.003 11.008 291.747 11.704C292.515 12.4 292.899 13.276 292.899 14.332C292.899 15.364 292.515 16.228 291.747 16.924C291.003 17.596 290.019 17.932 288.795 17.932ZM292.287 19.804V40H285.231V19.804H292.287ZM304.909 40.252C303.085 40.252 301.453 39.952 300.013 39.352C298.597 38.728 297.469 37.888 296.629 36.832C295.813 35.752 295.357 34.54 295.261 33.196H302.101C302.197 33.844 302.497 34.348 303.001 34.708C303.505 35.068 304.129 35.248 304.873 35.248C305.449 35.248 305.905 35.128 306.241 34.888C306.577 34.648 306.745 34.336 306.745 33.952C306.745 33.448 306.469 33.076 305.917 32.836C305.365 32.596 304.453 32.332 303.181 32.044C301.741 31.756 300.541 31.432 299.581 31.072C298.621 30.712 297.781 30.124 297.061 29.308C296.365 28.492 296.017 27.388 296.017 25.996C296.017 24.796 296.341 23.716 296.989 22.756C297.637 21.772 298.585 20.992 299.833 20.416C301.105 19.84 302.629 19.552 304.405 19.552C307.045 19.552 309.121 20.2 310.633 21.496C312.145 22.792 313.021 24.496 313.261 26.608H306.889C306.769 25.96 306.481 25.468 306.025 25.132C305.593 24.772 305.005 24.592 304.261 24.592C303.685 24.592 303.241 24.7 302.929 24.916C302.641 25.132 302.497 25.432 302.497 25.816C302.497 26.296 302.773 26.668 303.325 26.932C303.877 27.172 304.765 27.424 305.989 27.688C307.453 28 308.665 28.348 309.625 28.732C310.609 29.116 311.461 29.74 312.181 30.604C312.925 31.444 313.297 32.596 313.297 34.06C313.297 35.236 312.949 36.292 312.253 37.228C311.581 38.164 310.609 38.908 309.337 39.46C308.089 39.988 306.613 40.252 304.909 40.252Z" fill="#45519B"/>
<path d="M26 0V16.2878L13 24.4305L0 16.2866L26 0Z" fill="#8989A2"/>
<path d="M13.002 24.4295L26.002 32.5723V48.8577L13.002 40.715L0.00195312 32.5723V16.2856L13.002 24.4295Z" fill="#45519B"/>
<path d="M39.001 40.7147V56.9989L26.001 48.8574V32.572L39.001 40.7147Z" fill="#45519B"/>
<path d="M26 0V16.2854L39 24.427L52 32.5685V16.2866L26 0Z" fill="#45519B"/>
<path d="M51.999 16.2856V32.5734L38.999 40.7162L25.999 32.5723L38.999 24.4284L51.999 16.2856Z" fill="#8989A2"/>
<path d="M39.001 40.7147L26.001 48.8574V32.572L39.001 40.7147Z" fill="#8989A2"/>
</svg>
