<svg width="391" height="66" viewBox="0 0 391 66" fill="none" xmlns="http://www.w3.org/2000/svg">
<path d="M110.087 32.08C110.087 33.616 109.727 35.02 109.007 36.292C108.311 37.54 107.243 38.548 105.803 39.316C104.387 40.06 102.647 40.432 100.583 40.432H97.0906V49H90.0346V23.62H100.583C102.623 23.62 104.351 23.98 105.767 24.7C107.207 25.42 108.287 26.416 109.007 27.688C109.727 28.96 110.087 30.424 110.087 32.08ZM99.8986 34.816C101.891 34.816 102.887 33.904 102.887 32.08C102.887 30.232 101.891 29.308 99.8986 29.308H97.0906V34.816H99.8986ZM119.977 32.368C120.769 31.216 121.729 30.304 122.857 29.632C123.985 28.96 125.197 28.624 126.493 28.624V36.148H124.513C122.977 36.148 121.837 36.448 121.093 37.048C120.349 37.648 119.977 38.692 119.977 40.18V49H112.921V28.804H119.977V32.368ZM138.419 49.252C136.403 49.252 134.591 48.832 132.983 47.992C131.399 47.152 130.151 45.952 129.239 44.392C128.327 42.832 127.871 40.996 127.871 38.884C127.871 36.796 128.327 34.972 129.239 33.412C130.175 31.852 131.435 30.652 133.019 29.812C134.627 28.972 136.439 28.552 138.455 28.552C140.471 28.552 142.271 28.972 143.855 29.812C145.463 30.652 146.723 31.852 147.635 33.412C148.571 34.972 149.039 36.796 149.039 38.884C149.039 40.972 148.571 42.808 147.635 44.392C146.723 45.952 145.463 47.152 143.855 47.992C142.247 48.832 140.435 49.252 138.419 49.252ZM138.419 43.132C139.403 43.132 140.219 42.772 140.867 42.052C141.539 41.308 141.875 40.252 141.875 38.884C141.875 37.516 141.539 36.472 140.867 35.752C140.219 35.032 139.415 34.672 138.455 34.672C137.495 34.672 136.691 35.032 136.043 35.752C135.395 36.472 135.071 37.516 135.071 38.884C135.071 40.276 135.383 41.332 136.007 42.052C136.631 42.772 137.435 43.132 138.419 43.132ZM174.856 44.86H165.856L164.488 49H157.072L166.324 23.62H174.46L183.676 49H176.224L174.856 44.86ZM173.092 39.46L170.356 31.252L167.656 39.46H173.092ZM199.188 28.624C201.516 28.624 203.364 29.404 204.732 30.964C206.1 32.5 206.784 34.588 206.784 37.228V49H199.728V38.164C199.728 37.012 199.428 36.112 198.828 35.464C198.228 34.792 197.424 34.456 196.416 34.456C195.36 34.456 194.532 34.792 193.932 35.464C193.332 36.112 193.032 37.012 193.032 38.164V49H185.976V28.804H193.032V31.684C193.656 30.772 194.496 30.04 195.552 29.488C196.608 28.912 197.82 28.624 199.188 28.624ZM209.504 38.884C209.504 36.796 209.876 34.972 210.62 33.412C211.388 31.852 212.42 30.652 213.716 29.812C215.036 28.972 216.5 28.552 218.108 28.552C219.5 28.552 220.7 28.828 221.708 29.38C222.716 29.932 223.496 30.676 224.048 31.612V28.804H231.104V49H224.048V46.192C223.496 47.128 222.704 47.872 221.672 48.424C220.664 48.976 219.476 49.252 218.108 49.252C216.5 49.252 215.036 48.832 213.716 47.992C212.42 47.152 211.388 45.952 210.62 44.392C209.876 42.808 209.504 40.972 209.504 38.884ZM224.048 38.884C224.048 37.588 223.688 36.568 222.968 35.824C222.272 35.08 221.408 34.708 220.376 34.708C219.32 34.708 218.444 35.08 217.748 35.824C217.052 36.544 216.704 37.564 216.704 38.884C216.704 40.18 217.052 41.212 217.748 41.98C218.444 42.724 219.32 43.096 220.376 43.096C221.408 43.096 222.272 42.724 222.968 41.98C223.688 41.236 224.048 40.204 224.048 38.884ZM242.18 22.36V49H235.124V22.36H242.18ZM267.943 28.804L255.127 58.612H247.459L252.283 48.136L244.003 28.804H251.851L256.099 40.252L260.203 28.804H267.943ZM278.392 49.252C276.568 49.252 274.936 48.952 273.496 48.352C272.08 47.728 270.952 46.888 270.112 45.832C269.296 44.752 268.84 43.54 268.744 42.196H275.584C275.68 42.844 275.98 43.348 276.484 43.708C276.988 44.068 277.612 44.248 278.356 44.248C278.932 44.248 279.388 44.128 279.724 43.888C280.06 43.648 280.228 43.336 280.228 42.952C280.228 42.448 279.952 42.076 279.4 41.836C278.848 41.596 277.936 41.332 276.664 41.044C275.224 40.756 274.024 40.432 273.064 40.072C272.104 39.712 271.264 39.124 270.544 38.308C269.848 37.492 269.5 36.388 269.5 34.996C269.5 33.796 269.824 32.716 270.472 31.756C271.12 30.772 272.068 29.992 273.316 29.416C274.588 28.84 276.112 28.552 277.888 28.552C280.528 28.552 282.604 29.2 284.116 30.496C285.628 31.792 286.504 33.496 286.744 35.608H280.372C280.252 34.96 279.964 34.468 279.508 34.132C279.076 33.772 278.488 33.592 277.744 33.592C277.168 33.592 276.724 33.7 276.412 33.916C276.124 34.132 275.98 34.432 275.98 34.816C275.98 35.296 276.256 35.668 276.808 35.932C277.36 36.172 278.248 36.424 279.472 36.688C280.936 37 282.148 37.348 283.108 37.732C284.092 38.116 284.944 38.74 285.664 39.604C286.408 40.444 286.78 41.596 286.78 43.06C286.78 44.236 286.432 45.292 285.736 46.228C285.064 47.164 284.092 47.908 282.82 48.46C281.572 48.988 280.096 49.252 278.392 49.252ZM293.813 26.932C292.565 26.932 291.557 26.596 290.789 25.924C290.045 25.228 289.673 24.364 289.673 23.332C289.673 22.276 290.045 21.4 290.789 20.704C291.557 20.008 292.565 19.66 293.813 19.66C295.037 19.66 296.021 20.008 296.765 20.704C297.533 21.4 297.917 22.276 297.917 23.332C297.917 24.364 297.533 25.228 296.765 25.924C296.021 26.596 295.037 26.932 293.813 26.932ZM297.305 28.804V49H290.249V28.804H297.305ZM309.928 49.252C308.104 49.252 306.472 48.952 305.032 48.352C303.616 47.728 302.488 46.888 301.648 45.832C300.832 44.752 300.376 43.54 300.28 42.196H307.12C307.216 42.844 307.516 43.348 308.02 43.708C308.524 44.068 309.148 44.248 309.892 44.248C310.468 44.248 310.924 44.128 311.26 43.888C311.596 43.648 311.764 43.336 311.764 42.952C311.764 42.448 311.488 42.076 310.936 41.836C310.384 41.596 309.472 41.332 308.2 41.044C306.76 40.756 305.56 40.432 304.6 40.072C303.64 39.712 302.8 39.124 302.08 38.308C301.384 37.492 301.036 36.388 301.036 34.996C301.036 33.796 301.36 32.716 302.008 31.756C302.656 30.772 303.604 29.992 304.852 29.416C306.124 28.84 307.648 28.552 309.424 28.552C312.064 28.552 314.14 29.2 315.652 30.496C317.164 31.792 318.04 33.496 318.28 35.608H311.908C311.788 34.96 311.5 34.468 311.044 34.132C310.612 33.772 310.024 33.592 309.28 33.592C308.704 33.592 308.26 33.7 307.948 33.916C307.66 34.132 307.516 34.432 307.516 34.816C307.516 35.296 307.792 35.668 308.344 35.932C308.896 36.172 309.784 36.424 311.008 36.688C312.472 37 313.684 37.348 314.644 37.732C315.628 38.116 316.48 38.74 317.2 39.604C317.944 40.444 318.316 41.596 318.316 43.06C318.316 44.236 317.968 45.292 317.272 46.228C316.6 47.164 315.628 47.908 314.356 48.46C313.108 48.988 311.632 49.252 309.928 49.252Z" fill="#45519B"/>
<path d="M27.5721 9V25.2878L13.786 33.4305L0 25.2866L27.5721 9Z" fill="#8989A2"/>
<path d="M13.7882 33.4295L27.5743 41.5723V57.8577L13.7882 49.715L0.00219727 41.5723V25.2856L13.7882 33.4295Z" fill="#45519B"/>
<path d="M41.3593 49.7147V65.9989L27.5732 57.8574V41.572L41.3593 49.7147Z" fill="#45519B"/>
<path d="M27.572 9V25.2854L41.3581 33.427L55.1441 41.5685V25.2866L27.572 9Z" fill="#45519B"/>
<path d="M55.1431 25.2856V41.5734L41.3571 49.7162L27.571 41.5723L41.3571 33.4284L55.1431 25.2856Z" fill="#8989A2"/>
<path d="M41.3593 49.7147L27.5732 57.8574V41.572L41.3593 49.7147Z" fill="#8989A2"/>
<path d="M110.087 32.08C110.087 33.616 109.727 35.02 109.007 36.292C108.311 37.54 107.243 38.548 105.803 39.316C104.387 40.06 102.647 40.432 100.583 40.432H97.0906V49H90.0346V23.62H100.583C102.623 23.62 104.351 23.98 105.767 24.7C107.207 25.42 108.287 26.416 109.007 27.688C109.727 28.96 110.087 30.424 110.087 32.08ZM99.8986 34.816C101.891 34.816 102.887 33.904 102.887 32.08C102.887 30.232 101.891 29.308 99.8986 29.308H97.0906V34.816H99.8986ZM119.977 32.368C120.769 31.216 121.729 30.304 122.857 29.632C123.985 28.96 125.197 28.624 126.493 28.624V36.148H124.513C122.977 36.148 121.837 36.448 121.093 37.048C120.349 37.648 119.977 38.692 119.977 40.18V49H112.921V28.804H119.977V32.368ZM138.419 49.252C136.403 49.252 134.591 48.832 132.983 47.992C131.399 47.152 130.151 45.952 129.239 44.392C128.327 42.832 127.871 40.996 127.871 38.884C127.871 36.796 128.327 34.972 129.239 33.412C130.175 31.852 131.435 30.652 133.019 29.812C134.627 28.972 136.439 28.552 138.455 28.552C140.471 28.552 142.271 28.972 143.855 29.812C145.463 30.652 146.723 31.852 147.635 33.412C148.571 34.972 149.039 36.796 149.039 38.884C149.039 40.972 148.571 42.808 147.635 44.392C146.723 45.952 145.463 47.152 143.855 47.992C142.247 48.832 140.435 49.252 138.419 49.252ZM138.419 43.132C139.403 43.132 140.219 42.772 140.867 42.052C141.539 41.308 141.875 40.252 141.875 38.884C141.875 37.516 141.539 36.472 140.867 35.752C140.219 35.032 139.415 34.672 138.455 34.672C137.495 34.672 136.691 35.032 136.043 35.752C135.395 36.472 135.071 37.516 135.071 38.884C135.071 40.276 135.383 41.332 136.007 42.052C136.631 42.772 137.435 43.132 138.419 43.132ZM174.856 44.86H165.856L164.488 49H157.072L166.324 23.62H174.46L183.676 49H176.224L174.856 44.86ZM173.092 39.46L170.356 31.252L167.656 39.46H173.092ZM199.188 28.624C201.516 28.624 203.364 29.404 204.732 30.964C206.1 32.5 206.784 34.588 206.784 37.228V49H199.728V38.164C199.728 37.012 199.428 36.112 198.828 35.464C198.228 34.792 197.424 34.456 196.416 34.456C195.36 34.456 194.532 34.792 193.932 35.464C193.332 36.112 193.032 37.012 193.032 38.164V49H185.976V28.804H193.032V31.684C193.656 30.772 194.496 30.04 195.552 29.488C196.608 28.912 197.82 28.624 199.188 28.624ZM209.504 38.884C209.504 36.796 209.876 34.972 210.62 33.412C211.388 31.852 212.42 30.652 213.716 29.812C215.036 28.972 216.5 28.552 218.108 28.552C219.5 28.552 220.7 28.828 221.708 29.38C222.716 29.932 223.496 30.676 224.048 31.612V28.804H231.104V49H224.048V46.192C223.496 47.128 222.704 47.872 221.672 48.424C220.664 48.976 219.476 49.252 218.108 49.252C216.5 49.252 215.036 48.832 213.716 47.992C212.42 47.152 211.388 45.952 210.62 44.392C209.876 42.808 209.504 40.972 209.504 38.884ZM224.048 38.884C224.048 37.588 223.688 36.568 222.968 35.824C222.272 35.08 221.408 34.708 220.376 34.708C219.32 34.708 218.444 35.08 217.748 35.824C217.052 36.544 216.704 37.564 216.704 38.884C216.704 40.18 217.052 41.212 217.748 41.98C218.444 42.724 219.32 43.096 220.376 43.096C221.408 43.096 222.272 42.724 222.968 41.98C223.688 41.236 224.048 40.204 224.048 38.884ZM242.18 22.36V49H235.124V22.36H242.18ZM267.943 28.804L255.127 58.612H247.459L252.283 48.136L244.003 28.804H251.851L256.099 40.252L260.203 28.804H267.943ZM278.392 49.252C276.568 49.252 274.936 48.952 273.496 48.352C272.08 47.728 270.952 46.888 270.112 45.832C269.296 44.752 268.84 43.54 268.744 42.196H275.584C275.68 42.844 275.98 43.348 276.484 43.708C276.988 44.068 277.612 44.248 278.356 44.248C278.932 44.248 279.388 44.128 279.724 43.888C280.06 43.648 280.228 43.336 280.228 42.952C280.228 42.448 279.952 42.076 279.4 41.836C278.848 41.596 277.936 41.332 276.664 41.044C275.224 40.756 274.024 40.432 273.064 40.072C272.104 39.712 271.264 39.124 270.544 38.308C269.848 37.492 269.5 36.388 269.5 34.996C269.5 33.796 269.824 32.716 270.472 31.756C271.12 30.772 272.068 29.992 273.316 29.416C274.588 28.84 276.112 28.552 277.888 28.552C280.528 28.552 282.604 29.2 284.116 30.496C285.628 31.792 286.504 33.496 286.744 35.608H280.372C280.252 34.96 279.964 34.468 279.508 34.132C279.076 33.772 278.488 33.592 277.744 33.592C277.168 33.592 276.724 33.7 276.412 33.916C276.124 34.132 275.98 34.432 275.98 34.816C275.98 35.296 276.256 35.668 276.808 35.932C277.36 36.172 278.248 36.424 279.472 36.688C280.936 37 282.148 37.348 283.108 37.732C284.092 38.116 284.944 38.74 285.664 39.604C286.408 40.444 286.78 41.596 286.78 43.06C286.78 44.236 286.432 45.292 285.736 46.228C285.064 47.164 284.092 47.908 282.82 48.46C281.572 48.988 280.096 49.252 278.392 49.252ZM293.813 26.932C292.565 26.932 291.557 26.596 290.789 25.924C290.045 25.228 289.673 24.364 289.673 23.332C289.673 22.276 290.045 21.4 290.789 20.704C291.557 20.008 292.565 19.66 293.813 19.66C295.037 19.66 296.021 20.008 296.765 20.704C297.533 21.4 297.917 22.276 297.917 23.332C297.917 24.364 297.533 25.228 296.765 25.924C296.021 26.596 295.037 26.932 293.813 26.932ZM297.305 28.804V49H290.249V28.804H297.305ZM309.928 49.252C308.104 49.252 306.472 48.952 305.032 48.352C303.616 47.728 302.488 46.888 301.648 45.832C300.832 44.752 300.376 43.54 300.28 42.196H307.12C307.216 42.844 307.516 43.348 308.02 43.708C308.524 44.068 309.148 44.248 309.892 44.248C310.468 44.248 310.924 44.128 311.26 43.888C311.596 43.648 311.764 43.336 311.764 42.952C311.764 42.448 311.488 42.076 310.936 41.836C310.384 41.596 309.472 41.332 308.2 41.044C306.76 40.756 305.56 40.432 304.6 40.072C303.64 39.712 302.8 39.124 302.08 38.308C301.384 37.492 301.036 36.388 301.036 34.996C301.036 33.796 301.36 32.716 302.008 31.756C302.656 30.772 303.604 29.992 304.852 29.416C306.124 28.84 307.648 28.552 309.424 28.552C312.064 28.552 314.14 29.2 315.652 30.496C317.164 31.792 318.04 33.496 318.28 35.608H311.908C311.788 34.96 311.5 34.468 311.044 34.132C310.612 33.772 310.024 33.592 309.28 33.592C308.704 33.592 308.26 33.7 307.948 33.916C307.66 34.132 307.516 34.432 307.516 34.816C307.516 35.296 307.792 35.668 308.344 35.932C308.896 36.172 309.784 36.424 311.008 36.688C312.472 37 313.684 37.348 314.644 37.732C315.628 38.116 316.48 38.74 317.2 39.604C317.944 40.444 318.316 41.596 318.316 43.06C318.316 44.236 317.968 45.292 317.272 46.228C316.6 47.164 315.628 47.908 314.356 48.46C313.108 48.988 311.632 49.252 309.928 49.252Z" fill="#45519B"/>
<path d="M27.5721 9V25.2878L13.786 33.4305L0 25.2866L27.5721 9Z" fill="#8989A2"/>
<path d="M13.7882 33.4295L27.5743 41.5723V57.8577L13.7882 49.715L0.00219727 41.5723V25.2856L13.7882 33.4295Z" fill="#45519B"/>
<path d="M41.3593 49.7147V65.9989L27.5732 57.8574V41.572L41.3593 49.7147Z" fill="#45519B"/>
<path d="M27.572 9V25.2854L41.3581 33.427L55.1441 41.5685V25.2866L27.572 9Z" fill="#45519B"/>
<path d="M55.1431 25.2856V41.5734L41.3571 49.7162L27.571 41.5723L41.3571 33.4284L55.1431 25.2856Z" fill="#8989A2"/>
<path d="M41.3593 49.7147L27.5732 57.8574V41.572L41.3593 49.7147Z" fill="#8989A2"/>
<rect x="298" width="91.2" height="23" rx="8" fill="#FCD700"/>
<path d="M313.845 12.6738H310.048V12.0234H313.845C314.665 12.0234 315.333 11.8887 315.849 11.6191C316.364 11.3438 316.739 10.9775 316.974 10.5205C317.214 10.0576 317.334 9.54785 317.334 8.99121C317.334 8.41699 317.214 7.89258 316.974 7.41797C316.739 6.94336 316.364 6.56543 315.849 6.28418C315.333 5.99707 314.665 5.85352 313.845 5.85352H310.417V18H309.705V5.20312H313.845C314.765 5.20312 315.535 5.36133 316.156 5.67773C316.783 5.99414 317.255 6.43652 317.571 7.00488C317.888 7.56738 318.046 8.22363 318.046 8.97363C318.046 9.73535 317.888 10.3945 317.571 10.9512C317.255 11.502 316.786 11.9268 316.165 12.2256C315.544 12.5244 314.771 12.6738 313.845 12.6738ZM321.069 10.1074V18H320.375V8.49023H321.061L321.069 10.1074ZM324.69 8.41992L324.646 9.05273C324.541 9.03516 324.436 9.02051 324.33 9.00879C324.225 8.99707 324.113 8.99121 323.996 8.99121C323.492 8.99121 323.05 9.09082 322.669 9.29004C322.294 9.48926 321.978 9.76172 321.72 10.1074C321.468 10.4531 321.277 10.8545 321.148 11.3115C321.02 11.7686 320.952 12.2578 320.946 12.7793L320.604 12.8496C320.604 12.1992 320.671 11.5986 320.806 11.0479C320.946 10.4971 321.157 10.0166 321.438 9.60645C321.72 9.19629 322.074 8.87988 322.502 8.65723C322.93 8.42871 323.434 8.31445 324.014 8.31445C324.154 8.31445 324.283 8.32617 324.4 8.34961C324.518 8.36719 324.614 8.39062 324.69 8.41992ZM329.771 18.1758C329.173 18.1758 328.619 18.0615 328.109 17.833C327.6 17.5986 327.154 17.2734 326.773 16.8574C326.393 16.4355 326.094 15.9375 325.877 15.3633C325.666 14.7891 325.561 14.1592 325.561 13.4736V13.0869C325.561 12.3779 325.666 11.7334 325.877 11.1533C326.094 10.5674 326.387 10.0635 326.756 9.6416C327.125 9.21387 327.55 8.88574 328.03 8.65723C328.517 8.42871 329.035 8.31445 329.586 8.31445C330.143 8.31445 330.646 8.41699 331.098 8.62207C331.549 8.82715 331.936 9.11426 332.258 9.4834C332.58 9.85254 332.826 10.292 332.996 10.8018C333.166 11.3115 333.251 11.874 333.251 12.4893V13.0781H326V12.4365H332.557V12.3223C332.551 11.7246 332.428 11.1709 332.188 10.6611C331.953 10.1514 331.616 9.74121 331.177 9.43066C330.737 9.11426 330.207 8.95605 329.586 8.95605C329.088 8.95605 328.634 9.06152 328.224 9.27246C327.819 9.4834 327.471 9.77637 327.178 10.1514C326.885 10.5205 326.659 10.957 326.501 11.4609C326.343 11.959 326.264 12.501 326.264 13.0869V13.4736C326.264 14.0361 326.352 14.5635 326.527 15.0557C326.703 15.5479 326.949 15.9814 327.266 16.3564C327.582 16.7256 327.954 17.0156 328.382 17.2266C328.81 17.4375 329.278 17.543 329.788 17.543C330.339 17.543 330.843 17.4463 331.3 17.2529C331.757 17.0596 332.173 16.7197 332.548 16.2334L333.005 16.5762C332.794 16.8809 332.539 17.1533 332.24 17.3936C331.941 17.6338 331.587 17.8242 331.177 17.9648C330.772 18.1055 330.304 18.1758 329.771 18.1758ZM336.046 10.5029V18H335.343V8.49023H336.028L336.046 10.5029ZM335.932 12.5156L335.58 12.1113C335.627 11.6074 335.744 11.127 335.932 10.6699C336.125 10.2129 336.38 9.80859 336.696 9.45703C337.019 9.10547 337.396 8.82715 337.83 8.62207C338.27 8.41699 338.759 8.31445 339.298 8.31445C339.772 8.31445 340.197 8.37891 340.572 8.50781C340.953 8.63086 341.275 8.82715 341.539 9.09668C341.803 9.36035 342.005 9.70605 342.146 10.1338C342.286 10.5615 342.356 11.0742 342.356 11.6719V18H341.653V11.6895C341.653 10.9746 341.548 10.4209 341.337 10.0283C341.126 9.63574 340.833 9.36035 340.458 9.20215C340.083 9.03809 339.652 8.95605 339.166 8.95605C338.592 8.95605 338.103 9.08203 337.698 9.33398C337.294 9.58008 336.963 9.89355 336.705 10.2744C336.453 10.6494 336.266 11.0391 336.143 11.4434C336.02 11.8477 335.949 12.2051 335.932 12.5156ZM342.348 11.7334L341.873 11.5664C341.92 11.1387 342.04 10.7314 342.233 10.3447C342.433 9.95215 342.693 9.60645 343.016 9.30762C343.338 9.00293 343.716 8.7627 344.149 8.58691C344.589 8.40527 345.075 8.31445 345.608 8.31445C346.095 8.31445 346.528 8.38184 346.909 8.5166C347.296 8.64551 347.618 8.85352 347.876 9.14062C348.14 9.42188 348.342 9.78516 348.482 10.2305C348.623 10.6699 348.693 11.2031 348.693 11.8301V18H347.99V11.8213C347.99 11.0713 347.885 10.4883 347.674 10.0723C347.463 9.65625 347.17 9.36621 346.795 9.20215C346.42 9.03223 345.986 8.9502 345.494 8.95605C344.973 8.96191 344.519 9.05859 344.132 9.24609C343.745 9.43359 343.423 9.6709 343.165 9.95801C342.907 10.2451 342.711 10.5469 342.576 10.8633C342.441 11.1738 342.365 11.4639 342.348 11.7334ZM352.306 8.49023V18H351.603V8.49023H352.306ZM351.383 5.60742C351.383 5.44922 351.436 5.31445 351.541 5.20312C351.652 5.08594 351.793 5.02734 351.963 5.02734C352.127 5.02734 352.265 5.08594 352.376 5.20312C352.487 5.31445 352.543 5.44922 352.543 5.60742C352.543 5.76562 352.487 5.90039 352.376 6.01172C352.265 6.11719 352.127 6.16992 351.963 6.16992C351.793 6.16992 351.652 6.11719 351.541 6.01172C351.436 5.90039 351.383 5.76562 351.383 5.60742ZM361.604 15.8027V8.49023H362.308V18H361.613L361.604 15.8027ZM361.728 14.1855L362.185 14.168C362.185 14.748 362.111 15.2812 361.965 15.7676C361.824 16.2539 361.602 16.6787 361.297 17.042C360.998 17.3994 360.611 17.6777 360.137 17.877C359.662 18.0762 359.094 18.1758 358.432 18.1758C357.969 18.1758 357.544 18.1113 357.157 17.9824C356.776 17.8477 356.445 17.6367 356.164 17.3496C355.889 17.0625 355.675 16.6875 355.522 16.2246C355.376 15.7617 355.303 15.2021 355.303 14.5459V8.49023H355.997V14.5635C355.997 15.1143 356.059 15.5801 356.182 15.9609C356.311 16.3418 356.486 16.6465 356.709 16.875C356.932 17.1035 357.192 17.2705 357.491 17.376C357.79 17.4756 358.115 17.5254 358.467 17.5254C359.287 17.5254 359.935 17.3672 360.409 17.0508C360.89 16.7344 361.229 16.3213 361.429 15.8115C361.628 15.3018 361.728 14.7598 361.728 14.1855ZM365.841 10.5029V18H365.138V8.49023H365.823L365.841 10.5029ZM365.727 12.5156L365.375 12.1113C365.422 11.6074 365.539 11.127 365.727 10.6699C365.92 10.2129 366.175 9.80859 366.491 9.45703C366.813 9.10547 367.191 8.82715 367.625 8.62207C368.064 8.41699 368.554 8.31445 369.093 8.31445C369.567 8.31445 369.992 8.37891 370.367 8.50781C370.748 8.63086 371.07 8.82715 371.334 9.09668C371.598 9.36035 371.8 9.70605 371.94 10.1338C372.081 10.5615 372.151 11.0742 372.151 11.6719V18H371.448V11.6895C371.448 10.9746 371.343 10.4209 371.132 10.0283C370.921 9.63574 370.628 9.36035 370.253 9.20215C369.878 9.03809 369.447 8.95605 368.961 8.95605C368.387 8.95605 367.897 9.08203 367.493 9.33398C367.089 9.58008 366.758 9.89355 366.5 10.2744C366.248 10.6494 366.061 11.0391 365.938 11.4434C365.814 11.8477 365.744 12.2051 365.727 12.5156ZM372.143 11.7334L371.668 11.5664C371.715 11.1387 371.835 10.7314 372.028 10.3447C372.228 9.95215 372.488 9.60645 372.811 9.30762C373.133 9.00293 373.511 8.7627 373.944 8.58691C374.384 8.40527 374.87 8.31445 375.403 8.31445C375.89 8.31445 376.323 8.38184 376.704 8.5166C377.091 8.64551 377.413 8.85352 377.671 9.14062C377.935 9.42188 378.137 9.78516 378.277 10.2305C378.418 10.6699 378.488 11.2031 378.488 11.8301V18H377.785V11.8213C377.785 11.0713 377.68 10.4883 377.469 10.0723C377.258 9.65625 376.965 9.36621 376.59 9.20215C376.215 9.03223 375.781 8.9502 375.289 8.95605C374.768 8.96191 374.313 9.05859 373.927 9.24609C373.54 9.43359 373.218 9.6709 372.96 9.95801C372.702 10.2451 372.506 10.5469 372.371 10.8633C372.236 11.1738 372.16 11.4639 372.143 11.7334Z" fill="#45519B"/>
<path d="M310.048 12.6738H309.048V13.6738H310.048V12.6738ZM310.048 12.0234V11.0234H309.048V12.0234H310.048ZM315.849 11.6191L316.312 12.5054L316.32 12.5012L315.849 11.6191ZM316.974 10.5205L316.086 10.0599L316.084 10.0642L316.974 10.5205ZM316.974 7.41797L316.077 7.86077L316.081 7.86958L316.974 7.41797ZM315.849 6.28418L315.362 7.1579L315.37 7.16208L315.849 6.28418ZM310.417 5.85352V4.85352H309.417V5.85352H310.417ZM310.417 18V19H311.417V18H310.417ZM309.705 18H308.705V19H309.705V18ZM309.705 5.20312V4.20312H308.705V5.20312H309.705ZM316.156 5.67773L315.702 6.56878L315.706 6.57049L316.156 5.67773ZM317.571 7.00488L316.698 7.49129L316.7 7.49514L317.571 7.00488ZM317.571 10.9512L318.438 11.4493L318.441 11.4453L317.571 10.9512ZM313.845 11.6738H310.048V13.6738H313.845V11.6738ZM311.048 12.6738V12.0234H309.048V12.6738H311.048ZM310.048 13.0234H313.845V11.0234H310.048V13.0234ZM313.845 13.0234C314.764 13.0234 315.607 12.8739 316.312 12.5054L315.385 10.7329C315.059 10.9034 314.566 11.0234 313.845 11.0234V13.0234ZM316.32 12.5012C316.989 12.1436 317.524 11.6394 317.863 10.9768L316.084 10.0642C315.955 10.3157 315.739 10.5439 315.378 10.7371L316.32 12.5012ZM317.861 10.9812C318.18 10.3664 318.334 9.6971 318.334 8.99121H316.334C316.334 9.3986 316.247 9.74881 316.086 10.0599L317.861 10.9812ZM318.334 8.99121C318.334 8.27282 318.182 7.5919 317.866 6.96635L316.081 7.86958C316.245 8.19325 316.334 8.56116 316.334 8.99121H318.334ZM317.87 6.97519C317.535 6.29593 317.003 5.77482 316.327 5.40628L315.37 7.16208C315.725 7.35604 315.944 7.59079 316.077 7.86075L317.87 6.97519ZM316.335 5.41049C315.624 5.0145 314.772 4.85352 313.845 4.85352V6.85352C314.558 6.85352 315.042 6.97965 315.362 7.15787L316.335 5.41049ZM313.845 4.85352H310.417V6.85352H313.845V4.85352ZM309.417 5.85352V18H311.417V5.85352H309.417ZM310.417 17H309.705V19H310.417V17ZM310.705 18V5.20312H308.705V18H310.705ZM309.705 6.20312H313.845V4.20312H309.705V6.20312ZM313.845 6.20312C314.655 6.20312 315.259 6.34316 315.702 6.56877L316.61 4.78669C315.811 4.3795 314.874 4.20312 313.845 4.20312V6.20312ZM315.706 6.57049C316.169 6.80432 316.486 7.11168 316.698 7.49129L318.445 6.51848C318.024 5.76137 317.397 5.18396 316.607 4.78498L315.706 6.57049ZM316.7 7.49514C316.919 7.88526 317.046 8.36729 317.046 8.97363H319.046C319.046 8.07997 318.856 7.24951 318.443 6.51462L316.7 7.49514ZM317.046 8.97363C317.046 9.59503 316.918 10.0772 316.702 10.457L318.441 11.4453C318.858 10.7118 319.046 9.87567 319.046 8.97363H317.046ZM316.704 10.453C316.497 10.8138 316.187 11.1053 315.731 11.3245L316.599 13.1267C317.385 12.7482 318.013 12.1901 318.438 11.4493L316.704 10.453ZM315.731 11.3245C315.284 11.5399 314.669 11.6738 313.845 11.6738V13.6738C314.872 13.6738 315.804 13.509 316.599 13.1267L315.731 11.3245ZM321.069 10.1074H322.069L322.069 10.102L321.069 10.1074ZM321.069 18V19H322.069V18H321.069ZM320.375 18H319.375V19H320.375V18ZM320.375 8.49023V7.49023H319.375V8.49023H320.375ZM321.061 8.49023L322.061 8.4848L322.055 7.49023H321.061V8.49023ZM324.69 8.41992L325.688 8.4892L325.739 7.75189L325.049 7.48658L324.69 8.41992ZM324.646 9.05273L324.482 10.0391L325.568 10.2201L325.644 9.12201L324.646 9.05273ZM322.669 9.29004L322.205 8.40392L322.2 8.40692L322.669 9.29004ZM321.72 10.1074L320.918 9.50956L320.912 9.51844L321.72 10.1074ZM320.946 12.7793L321.147 13.7589L321.937 13.5969L321.946 12.7905L320.946 12.7793ZM320.604 12.8496H319.604V14.0756L320.804 13.8292L320.604 12.8496ZM320.806 11.0479L319.837 10.8005L319.834 10.8102L320.806 11.0479ZM322.502 8.65723L322.964 9.5443L322.973 9.53924L322.502 8.65723ZM324.4 8.34961L324.204 9.33019L324.228 9.33495L324.252 9.33855L324.4 8.34961ZM320.069 10.1074V18H322.069V10.1074H320.069ZM321.069 17H320.375V19H321.069V17ZM321.375 18V8.49023H319.375V18H321.375ZM320.375 9.49023H321.061V7.49023H320.375V9.49023ZM320.061 8.49567L320.069 10.1129L322.069 10.102L322.061 8.4848L320.061 8.49567ZM323.693 8.35064L323.649 8.98346L325.644 9.12201L325.688 8.4892L323.693 8.35064ZM324.811 8.06634C324.688 8.0458 324.564 8.02865 324.441 8.01491L324.22 10.0027C324.307 10.0124 324.394 10.0245 324.482 10.0391L324.811 8.06634ZM324.441 8.01491C324.295 7.99872 324.146 7.99121 323.996 7.99121V9.99121C324.08 9.99121 324.154 9.99542 324.22 10.0027L324.441 8.01491ZM323.996 7.99121C323.359 7.99121 322.752 8.11799 322.205 8.40394L323.132 10.1761C323.347 10.0637 323.626 9.99121 323.996 9.99121V7.99121ZM322.2 8.40692C321.692 8.6766 321.263 9.0473 320.918 9.5096L322.521 10.7052C322.692 10.4761 322.896 10.3019 323.138 10.1732L322.2 8.40692ZM320.912 9.51844C320.583 9.96997 320.344 10.4814 320.186 11.0401L322.111 11.583C322.211 11.2276 322.353 10.9363 322.528 10.6964L320.912 9.51844ZM320.186 11.0401C320.031 11.5897 319.953 12.1671 319.946 12.7681L321.946 12.7905C321.951 12.3485 322.008 11.9475 322.111 11.583L320.186 11.0401ZM320.745 11.7997L320.403 11.87L320.804 13.8292L321.147 13.7589L320.745 11.7997ZM321.604 12.8496C321.604 12.2678 321.664 11.7481 321.777 11.2855L319.834 10.8102C319.678 11.4492 319.604 12.1306 319.604 12.8496H321.604ZM321.775 11.2952C321.89 10.8421 322.057 10.4726 322.263 10.172L320.614 9.04092C320.257 9.56062 320.002 10.152 319.837 10.8005L321.775 11.2952ZM322.263 10.172C322.455 9.89274 322.686 9.68871 322.964 9.54424L322.04 7.77021C321.462 8.07105 320.985 8.49984 320.614 9.04092L322.263 10.172ZM322.973 9.53924C323.23 9.40202 323.566 9.31445 324.014 9.31445V7.31445C323.301 7.31445 322.629 7.4554 322.031 7.77521L322.973 9.53924ZM324.014 9.31445C324.1 9.31445 324.162 9.32169 324.204 9.33019L324.597 7.36903C324.405 7.33065 324.209 7.31445 324.014 7.31445V9.31445ZM324.252 9.33855C324.287 9.34374 324.31 9.34866 324.325 9.35222C324.34 9.35589 324.341 9.35701 324.331 9.35327L325.049 7.48658C324.882 7.42231 324.709 7.38467 324.549 7.36067L324.252 9.33855ZM328.109 17.833L327.692 18.7416L327.7 18.7455L328.109 17.833ZM326.773 16.8574L326.031 17.5275L326.036 17.5327L326.773 16.8574ZM325.877 15.3633L324.938 15.7081L324.941 15.7165L325.877 15.3633ZM325.877 11.1533L324.939 10.8063L324.937 10.8116L325.877 11.1533ZM326.756 9.6416L327.508 10.3001L327.513 10.295L326.756 9.6416ZM328.03 8.65723L327.605 7.75215L327.601 7.75416L328.03 8.65723ZM333.251 13.0781V14.0781H334.251V13.0781H333.251ZM326 13.0781H325V14.0781H326V13.0781ZM326 12.4365V11.4365H325V12.4365H326ZM332.557 12.4365V13.4365H333.557V12.4365H332.557ZM332.557 12.3223H333.557L333.557 12.3125L332.557 12.3223ZM332.188 10.6611L331.279 11.0789L331.283 11.0874L332.188 10.6611ZM331.177 9.43066L330.592 10.2422L330.6 10.2473L331.177 9.43066ZM328.224 9.27246L327.766 8.38316L327.761 8.38588L328.224 9.27246ZM327.178 10.1514L327.961 10.773L327.966 10.767L327.178 10.1514ZM326.501 11.4609L327.454 11.7637L327.455 11.7605L326.501 11.4609ZM327.266 16.3564L326.501 17.0013L326.506 17.0072L327.266 16.3564ZM332.548 16.2334L333.148 15.4334L332.358 14.8414L331.756 15.6228L332.548 16.2334ZM333.005 16.5762L333.827 17.1454L334.375 16.3538L333.605 15.7762L333.005 16.5762ZM331.177 17.9648L330.852 17.0189L330.848 17.0203L331.177 17.9648ZM329.771 17.1758C329.304 17.1758 328.891 17.0874 328.518 16.9205L327.7 18.7455C328.348 19.0357 329.042 19.1758 329.771 19.1758V17.1758ZM328.527 16.9244C328.139 16.746 327.802 16.5004 327.511 16.1822L326.036 17.5327C326.506 18.0465 327.06 18.4512 327.692 18.7416L328.527 16.9244ZM327.516 16.1873C327.225 15.8653 326.989 15.4769 326.812 15.0101L324.941 15.7165C325.199 16.3981 325.56 17.0058 326.031 17.5275L327.516 16.1873ZM326.816 15.0185C326.65 14.5672 326.561 14.0556 326.561 13.4736H324.561C324.561 14.2627 324.682 15.0109 324.938 15.7081L326.816 15.0185ZM326.561 13.4736V13.0869H324.561V13.4736H326.561ZM326.561 13.0869C326.561 12.4774 326.651 11.9506 326.817 11.4951L324.937 10.8116C324.681 11.5162 324.561 12.2784 324.561 13.0869H326.561ZM326.815 11.5003C326.994 11.0156 327.228 10.6204 327.508 10.3001L326.003 8.9831C325.545 9.50656 325.193 10.1192 324.939 10.8063L326.815 11.5003ZM327.513 10.295C327.797 9.96566 328.112 9.72555 328.46 9.56029L327.601 7.75416C326.987 8.04593 326.453 8.46207 325.999 8.98825L327.513 10.295ZM328.456 9.56229C328.805 9.39789 329.178 9.31445 329.586 9.31445V7.31445C328.892 7.31445 328.228 7.45953 327.605 7.75216L328.456 9.56229ZM329.586 9.31445C330.017 9.31445 330.378 9.39332 330.684 9.53244L331.511 7.7117C330.915 7.44067 330.268 7.31445 329.586 7.31445V9.31445ZM330.684 9.53244C331.007 9.67916 331.277 9.88066 331.504 10.1411L333.011 8.82574C332.594 8.34785 332.091 7.97514 331.511 7.7117L330.684 9.53244ZM331.504 10.1411C331.732 10.4012 331.915 10.7216 332.047 11.118L333.945 10.4855C333.737 9.86234 333.429 9.30388 333.011 8.82574L331.504 10.1411ZM332.047 11.118C332.179 11.5122 332.251 11.9662 332.251 12.4893H334.251C334.251 11.7819 334.153 11.1108 333.945 10.4855L332.047 11.118ZM332.251 12.4893V13.0781H334.251V12.4893H332.251ZM333.251 12.0781H326V14.0781H333.251V12.0781ZM327 13.0781V12.4365H325V13.0781H327ZM326 13.4365H332.557V11.4365H326V13.4365ZM333.557 12.4365V12.3223H331.557V12.4365H333.557ZM333.557 12.3125C333.549 11.5796 333.397 10.8828 333.092 10.2348L331.283 11.0874C331.458 11.459 331.552 11.8696 331.557 12.3321L333.557 12.3125ZM333.096 10.2434C332.791 9.58093 332.343 9.03048 331.754 8.614L330.6 10.2473C330.889 10.4519 331.115 10.7218 331.279 11.0789L333.096 10.2434ZM331.761 8.61913C331.127 8.16274 330.385 7.95605 329.586 7.95605V9.95605C330.029 9.95605 330.347 10.0658 330.592 10.2422L331.761 8.61913ZM329.586 7.95605C328.942 7.95605 328.329 8.09376 327.766 8.38317L328.681 10.1617C328.939 10.0293 329.234 9.95605 329.586 9.95605V7.95605ZM327.761 8.38588C327.225 8.66574 326.767 9.05323 326.39 9.53572L327.966 10.767C328.175 10.4995 328.414 10.3011 328.686 10.159L327.761 8.38588ZM326.394 9.52971C326.017 10.0057 325.737 10.5546 325.547 11.1614L327.455 11.7605C327.581 11.3595 327.753 11.0353 327.961 10.773L326.394 9.52971ZM325.548 11.1582C325.355 11.7652 325.264 12.4105 325.264 13.0869H327.264C327.264 12.5914 327.33 12.1528 327.454 11.7637L325.548 11.1582ZM325.264 13.0869V13.4736H327.264V13.0869H325.264ZM325.264 13.4736C325.264 14.142 325.368 14.7839 325.586 15.392L327.469 14.7193C327.335 14.343 327.264 13.9303 327.264 13.4736H325.264ZM325.586 15.392C325.799 15.9894 326.103 16.5291 326.501 17.0013L328.03 15.7116C327.796 15.4338 327.607 15.1063 327.469 14.7193L325.586 15.392ZM326.506 17.0072C326.909 17.4769 327.388 17.8515 327.94 18.1234L328.824 16.3297C328.52 16.1797 328.255 15.9742 328.025 15.7057L326.506 17.0072ZM327.94 18.1234C328.514 18.4068 329.136 18.543 329.788 18.543V16.543C329.421 16.543 329.105 16.4682 328.824 16.3297L327.94 18.1234ZM329.788 18.543C330.458 18.543 331.096 18.4249 331.689 18.1739L330.91 16.332C330.589 16.4677 330.22 16.543 329.788 16.543V18.543ZM331.689 18.1739C332.339 17.8993 332.884 17.4347 333.34 16.844L331.756 15.6228C331.461 16.0048 331.175 16.2199 330.91 16.332L331.689 18.1739ZM331.948 17.0334L332.405 17.3762L333.605 15.7762L333.148 15.4334L331.948 17.0334ZM332.183 16.007C332.028 16.2298 331.84 16.4321 331.614 16.6142L332.867 18.1729C333.238 17.8745 333.559 17.5319 333.827 17.1454L332.183 16.007ZM331.614 16.6142C331.416 16.773 331.167 16.911 330.852 17.0189L331.501 18.9108C332.007 18.7374 332.467 18.4946 332.867 18.1729L331.614 16.6142ZM330.848 17.0203C330.572 17.1165 330.218 17.1758 329.771 17.1758V19.1758C330.389 19.1758 330.973 19.0945 331.505 18.9093L330.848 17.0203ZM336.046 10.5029H337.046L337.046 10.4942L336.046 10.5029ZM336.046 18V19H337.046V18H336.046ZM335.343 18H334.343V19H335.343V18ZM335.343 8.49023V7.49023H334.343V8.49023H335.343ZM336.028 8.49023L337.028 8.4815L337.02 7.49023H336.028V8.49023ZM335.932 12.5156L335.177 13.1718L336.791 15.0279L336.93 12.5721L335.932 12.5156ZM335.58 12.1113L334.584 12.0187L334.545 12.4447L334.825 12.7675L335.58 12.1113ZM335.932 10.6699L335.011 10.2803L335.006 10.2904L335.932 10.6699ZM336.696 9.45703L335.959 8.78128L335.953 8.78807L336.696 9.45703ZM337.83 8.62207L337.407 7.71588L337.403 7.71808L337.83 8.62207ZM340.572 8.50781L340.247 9.4535L340.256 9.45652L340.265 9.45938L340.572 8.50781ZM341.539 9.09668L340.824 9.79602L340.832 9.80379L341.539 9.09668ZM342.356 18V19H343.356V18H342.356ZM341.653 18H340.653V19H341.653V18ZM340.458 9.20215L340.057 10.1184L340.069 10.1235L340.458 9.20215ZM337.698 9.33398L338.218 10.1882L338.227 10.1827L337.698 9.33398ZM336.705 10.2744L335.877 9.71384L335.875 9.71672L336.705 10.2744ZM342.348 11.7334L342.016 12.6767L343.26 13.1144L343.346 11.7985L342.348 11.7334ZM341.873 11.5664L340.879 11.4575L340.793 12.2463L341.541 12.5097L341.873 11.5664ZM342.233 10.3447L341.342 9.89219L341.339 9.89751L342.233 10.3447ZM343.016 9.30762L343.696 10.0409L343.703 10.0343L343.016 9.30762ZM344.149 8.58691L344.525 9.51367L344.531 9.51108L344.149 8.58691ZM346.909 8.5166L346.576 9.45932L346.584 9.46238L346.593 9.46529L346.909 8.5166ZM347.876 9.14062L347.132 9.80875L347.139 9.81674L347.146 9.82457L347.876 9.14062ZM348.482 10.2305L347.529 10.5316L347.53 10.5352L348.482 10.2305ZM348.693 18V19H349.693V18H348.693ZM347.99 18H346.99V19H347.99V18ZM346.795 9.20215L346.382 10.1131L346.394 10.1183L346.795 9.20215ZM345.494 8.95605L345.505 9.95599L345.506 9.95598L345.494 8.95605ZM342.576 10.8633L343.494 11.2614L343.496 11.2551L342.576 10.8633ZM335.046 10.5029V18H337.046V10.5029H335.046ZM336.046 17H335.343V19H336.046V17ZM336.343 18V8.49023H334.343V18H336.343ZM335.343 9.49023H336.028V7.49023H335.343V9.49023ZM335.028 8.49897L335.046 10.5117L337.046 10.4942L337.028 8.4815L335.028 8.49897ZM336.686 11.8594L336.335 11.4551L334.825 12.7675L335.177 13.1718L336.686 11.8594ZM336.576 12.204C336.614 11.7962 336.708 11.4126 336.857 11.0495L335.006 10.2904C334.78 10.8413 334.64 11.4186 334.584 12.0187L336.576 12.204ZM336.853 11.0596C337.005 10.6998 337.201 10.391 337.44 10.126L335.953 8.78807C335.559 9.22622 335.245 9.726 335.011 10.2803L336.853 11.0596ZM337.433 10.1328C337.668 9.87716 337.94 9.67612 338.258 9.52606L337.403 7.71808C336.853 7.97817 336.369 8.33378 335.959 8.78131L337.433 10.1328ZM338.253 9.52825C338.546 9.39156 338.888 9.31445 339.298 9.31445V7.31445C338.629 7.31445 337.993 7.44242 337.407 7.71589L338.253 9.52825ZM339.298 9.31445C339.683 9.31445 339.995 9.36684 340.247 9.4535L340.897 7.56213C340.399 7.39098 339.862 7.31445 339.298 7.31445V9.31445ZM340.265 9.45938C340.501 9.53575 340.681 9.64943 340.824 9.79597L342.254 8.39739C341.87 8.00487 341.405 7.72597 340.88 7.55624L340.265 9.45938ZM340.832 9.80379C340.964 9.93602 341.094 10.1367 341.196 10.4461L343.095 9.82147C342.916 9.27545 342.641 8.78468 342.246 8.38957L340.832 9.80379ZM341.196 10.4461C341.294 10.7462 341.356 11.1478 341.356 11.6719H343.356C343.356 11.0007 343.278 10.3769 343.095 9.82147L341.196 10.4461ZM341.356 11.6719V18H343.356V11.6719H341.356ZM342.356 17H341.653V19H342.356V17ZM342.653 18V11.6895H340.653V18H342.653ZM342.653 11.6895C342.653 10.8988 342.54 10.1555 342.218 9.55501L340.456 10.5016C340.555 10.6863 340.653 11.0504 340.653 11.6895H342.653ZM342.218 9.55501C341.91 8.98163 341.452 8.53635 340.847 8.28078L340.069 10.1235C340.214 10.1844 340.342 10.2899 340.456 10.5016L342.218 9.55501ZM340.859 8.28599C340.336 8.05724 339.765 7.95605 339.166 7.95605V9.95605C339.54 9.95605 339.83 10.0189 340.057 10.1183L340.859 8.28599ZM339.166 7.95605C338.443 7.95605 337.762 8.11583 337.169 8.4853L338.227 10.1827C338.443 10.0482 338.74 9.95605 339.166 9.95605V7.95605ZM337.178 8.47979C336.655 8.79827 336.218 9.21062 335.877 9.71385L337.533 10.835C337.708 10.5765 337.933 10.3619 338.218 10.1882L337.178 8.47979ZM335.875 9.71672C335.572 10.1682 335.34 10.647 335.186 11.1522L337.099 11.7345C337.192 11.4312 337.335 11.1307 337.535 10.8321L335.875 9.71672ZM335.186 11.1522C335.047 11.6075 334.957 12.0464 334.933 12.4591L336.93 12.5721C336.942 12.3638 336.992 12.0878 337.099 11.7345L335.186 11.1522ZM342.68 10.7901L342.205 10.6231L341.541 12.5097L342.016 12.6767L342.68 10.7901ZM342.867 11.6753C342.901 11.366 342.987 11.0732 343.128 10.7919L341.339 9.89751C341.093 10.3897 340.939 10.9114 340.879 11.4575L342.867 11.6753ZM343.125 10.7973C343.271 10.5099 343.46 10.2592 343.696 10.0409L342.336 8.57435C341.927 8.95365 341.594 9.39444 341.342 9.8922L343.125 10.7973ZM343.703 10.0343C343.93 9.81969 344.2 9.64529 344.525 9.51365L343.774 7.66017C343.231 7.8801 342.746 8.18617 342.329 8.58097L343.703 10.0343ZM344.531 9.51108C344.836 9.38523 345.19 9.31445 345.608 9.31445V7.31445C344.96 7.31445 344.342 7.42531 343.767 7.66275L344.531 9.51108ZM345.608 9.31445C346.004 9.31445 346.321 9.3693 346.576 9.45932L347.243 7.57388C346.735 7.39437 346.186 7.31445 345.608 7.31445V9.31445ZM346.593 9.46529C346.825 9.54256 346.997 9.65802 347.132 9.80875L348.62 8.4725C348.24 8.04901 347.767 7.74846 347.225 7.56792L346.593 9.46529ZM347.146 9.82457C347.288 9.97595 347.424 10.1994 347.529 10.5316L349.436 9.92934C349.26 9.37095 348.991 8.8678 348.606 8.45668L347.146 9.82457ZM347.53 10.5352C347.63 10.848 347.693 11.2721 347.693 11.8301H349.693C349.693 11.1342 349.616 10.4919 349.435 9.92569L347.53 10.5352ZM347.693 11.8301V18H349.693V11.8301H347.693ZM348.693 17H347.99V19H348.693V17ZM348.99 18V11.8213H346.99V18H348.99ZM348.99 11.8213C348.99 10.9993 348.878 10.2363 348.566 9.62003L346.782 10.5245C346.891 10.7403 346.99 11.1433 346.99 11.8213H348.99ZM348.566 9.62003C348.265 9.02762 347.813 8.5559 347.196 8.28599L346.394 10.1183C346.527 10.1765 346.66 10.2849 346.782 10.5245L348.566 9.62003ZM347.208 8.2913C346.676 8.0503 346.093 7.94886 345.482 7.95613L345.506 9.95598C345.88 9.95153 346.164 10.0142 346.382 10.113L347.208 8.2913ZM345.483 7.95612C344.845 7.96329 344.24 8.08226 343.696 8.34628L344.568 10.1459C344.797 10.0349 345.1 9.96054 345.505 9.95599L345.483 7.95612ZM343.696 8.34628C343.205 8.5839 342.775 8.89593 342.421 9.28988L343.909 10.6261C344.071 10.4459 344.285 10.2833 344.568 10.1459L343.696 8.34628ZM342.421 9.28988C342.099 9.64891 341.839 10.0424 341.656 10.4714L343.496 11.2551C343.583 11.0514 343.716 10.8413 343.909 10.6261L342.421 9.28988ZM341.659 10.4652C341.489 10.8557 341.376 11.2591 341.35 11.6683L343.346 11.7985C343.354 11.6687 343.393 11.492 343.494 11.2614L341.659 10.4652ZM352.306 8.49023H353.306V7.49023H352.306V8.49023ZM352.306 18V19H353.306V18H352.306ZM351.603 18H350.603V19H351.603V18ZM351.603 8.49023V7.49023H350.603V8.49023H351.603ZM351.541 5.20312L350.816 4.51437L350.815 4.51538L351.541 5.20312ZM352.376 5.20312L351.651 5.89187L351.66 5.90117L351.669 5.91023L352.376 5.20312ZM352.376 6.01172L353.064 6.73767L353.074 6.72838L353.083 6.71883L352.376 6.01172ZM351.541 6.01172L350.815 6.69946L350.834 6.71908L350.853 6.73767L351.541 6.01172ZM351.306 8.49023V18H353.306V8.49023H351.306ZM352.306 17H351.603V19H352.306V17ZM352.603 18V8.49023H350.603V18H352.603ZM351.603 9.49023H352.306V7.49023H351.603V9.49023ZM352.383 5.60742C352.383 5.64136 352.377 5.69298 352.354 5.75209C352.33 5.81176 352.297 5.85864 352.267 5.89087L350.815 4.51538C350.528 4.81887 350.383 5.20232 350.383 5.60742H352.383ZM352.266 5.89187C352.232 5.92797 352.181 5.96688 352.115 5.99437C352.05 6.0214 351.995 6.02734 351.963 6.02734V4.02734C351.535 4.02734 351.127 4.18732 350.816 4.51438L352.266 5.89187ZM351.963 6.02734C351.923 6.02734 351.864 6.01971 351.798 5.99144C351.731 5.96303 351.682 5.92436 351.651 5.89187L353.101 4.51438C352.798 4.19511 352.396 4.02734 351.963 4.02734V6.02734ZM351.669 5.91023C351.639 5.8803 351.603 5.83319 351.577 5.76946C351.551 5.70582 351.543 5.64809 351.543 5.60742H353.543C353.543 5.18545 353.383 4.7959 353.083 4.49602L351.669 5.91023ZM351.543 5.60742C351.543 5.56676 351.551 5.50902 351.577 5.44539C351.603 5.38166 351.639 5.33455 351.669 5.30461L353.083 6.71883C353.383 6.41894 353.543 6.0294 353.543 5.60742H351.543ZM351.688 5.28577C351.724 5.25189 351.773 5.21899 351.832 5.19651C351.889 5.1745 351.936 5.16992 351.963 5.16992V7.16992C352.363 7.16992 352.753 7.03215 353.064 6.73767L351.688 5.28577ZM351.963 5.16992C351.982 5.16992 352.025 5.17315 352.081 5.19404C352.139 5.21561 352.189 5.24857 352.229 5.28577L350.853 6.73767C351.171 7.03875 351.567 7.16992 351.963 7.16992V5.16992ZM352.267 5.32397C352.297 5.3562 352.33 5.40308 352.354 5.46275C352.377 5.52186 352.383 5.57348 352.383 5.60742H350.383C350.383 6.01252 350.528 6.39598 350.815 6.69946L352.267 5.32397ZM361.604 15.8027H360.604L360.604 15.8067L361.604 15.8027ZM361.604 8.49023V7.49023H360.604V8.49023H361.604ZM362.308 8.49023H363.308V7.49023H362.308V8.49023ZM362.308 18V19H363.308V18H362.308ZM361.613 18L360.613 18.004L360.617 19H361.613V18ZM361.728 14.1855L361.689 13.1863L360.728 13.2233V14.1855H361.728ZM362.185 14.168H363.185V13.1288L362.146 13.1687L362.185 14.168ZM361.965 15.7676L361.007 15.4792L361.004 15.4898L361.965 15.7676ZM361.297 17.042L360.531 16.3994L360.53 16.4006L361.297 17.042ZM357.157 17.9824L356.824 18.9251L356.832 18.9282L356.841 18.9311L357.157 17.9824ZM356.164 17.3496L355.442 18.0419L355.45 18.0494L356.164 17.3496ZM355.522 16.2246L354.569 16.5263L354.573 16.5372L355.522 16.2246ZM355.303 8.49023V7.49023H354.303V8.49023H355.303ZM355.997 8.49023H356.997V7.49023H355.997V8.49023ZM356.182 15.9609L355.23 16.2684L355.234 16.2815L356.182 15.9609ZM357.491 17.376L357.158 18.319L357.167 18.3219L357.175 18.3247L357.491 17.376ZM360.409 17.0508L359.859 16.2156L359.854 16.2187L360.409 17.0508ZM362.604 15.8027V8.49023H360.604V15.8027H362.604ZM361.604 9.49023H362.308V7.49023H361.604V9.49023ZM361.308 8.49023V18H363.308V8.49023H361.308ZM362.308 17H361.613V19H362.308V17ZM362.613 17.996L362.604 15.7987L360.604 15.8067L360.613 18.004L362.613 17.996ZM361.766 15.1848L362.223 15.1672L362.146 13.1687L361.689 13.1863L361.766 15.1848ZM361.185 14.168C361.185 14.664 361.122 15.0986 361.007 15.4792L362.922 16.056C363.101 15.4639 363.185 14.8321 363.185 14.168H361.185ZM361.004 15.4898C360.9 15.8515 360.74 16.1499 360.531 16.3994L362.063 17.6846C362.463 17.2075 362.749 16.6563 362.925 16.0454L361.004 15.4898ZM360.53 16.4006C360.344 16.623 360.093 16.8109 359.75 16.9549L360.524 18.799C361.13 18.5446 361.652 18.1758 362.064 17.6834L360.53 16.4006ZM359.75 16.9549C359.427 17.0902 358.997 17.1758 358.432 17.1758V19.1758C359.19 19.1758 359.897 19.0621 360.524 18.799L359.75 16.9549ZM358.432 17.1758C358.062 17.1758 357.745 17.1244 357.473 17.0337L356.841 18.9311C357.342 19.0983 357.876 19.1758 358.432 19.1758V17.1758ZM357.491 17.0397C357.253 16.9555 357.052 16.8274 356.878 16.6498L355.45 18.0494C355.838 18.446 356.3 18.7398 356.824 18.9251L357.491 17.0397ZM356.886 16.6574C356.734 16.4997 356.588 16.2642 356.472 15.912L354.573 16.5372C354.761 17.1108 355.043 17.6253 355.442 18.0418L356.886 16.6574ZM356.476 15.9229C356.369 15.5851 356.303 15.1333 356.303 14.5459H354.303C354.303 15.271 354.383 15.9384 354.569 16.5263L356.476 15.9229ZM356.303 14.5459V8.49023H354.303V14.5459H356.303ZM355.303 9.49023H355.997V7.49023H355.303V9.49023ZM354.997 8.49023V14.5635H356.997V8.49023H354.997ZM354.997 14.5635C354.997 15.1823 355.065 15.7587 355.23 16.2684L357.133 15.6535C357.052 15.4015 356.997 15.0462 356.997 14.5635H354.997ZM355.234 16.2815C355.399 16.7681 355.642 17.2133 355.993 17.5729L357.425 16.1771C357.33 16.0796 357.222 15.9155 357.129 15.6403L355.234 16.2815ZM355.993 17.5729C356.322 17.9107 356.714 18.162 357.158 18.319L357.824 16.433C357.671 16.379 357.541 16.2963 357.425 16.1771L355.993 17.5729ZM357.175 18.3247C357.587 18.462 358.02 18.5254 358.467 18.5254V16.5254C358.21 16.5254 357.993 16.4892 357.807 16.4273L357.175 18.3247ZM358.467 18.5254C359.402 18.5254 360.268 18.347 360.964 17.8828L359.854 16.2187C359.601 16.3874 359.172 16.5254 358.467 16.5254V18.5254ZM360.959 17.886C361.603 17.4619 362.082 16.8882 362.36 16.1755L360.497 15.4475C360.377 15.7544 360.176 16.0068 359.859 16.2156L360.959 17.886ZM362.36 16.1755C362.607 15.5441 362.728 14.8781 362.728 14.1855H360.728C360.728 14.6414 360.649 15.0594 360.497 15.4475L362.36 16.1755ZM365.841 10.5029H366.841L366.841 10.4942L365.841 10.5029ZM365.841 18V19H366.841V18H365.841ZM365.138 18H364.138V19H365.138V18ZM365.138 8.49023V7.49023H364.138V8.49023H365.138ZM365.823 8.49023L366.823 8.4815L366.815 7.49023H365.823V8.49023ZM365.727 12.5156L364.972 13.1718L366.586 15.0279L366.725 12.5721L365.727 12.5156ZM365.375 12.1113L364.379 12.0187L364.34 12.4447L364.62 12.7675L365.375 12.1113ZM365.727 10.6699L364.806 10.2803L364.801 10.2904L365.727 10.6699ZM366.491 9.45703L365.754 8.78128L365.748 8.78807L366.491 9.45703ZM367.625 8.62207L367.202 7.71588L367.197 7.71808L367.625 8.62207ZM370.367 8.50781L370.042 9.4535L370.051 9.45652L370.06 9.45938L370.367 8.50781ZM371.334 9.09668L370.619 9.79602L370.627 9.80379L371.334 9.09668ZM372.151 18V19H373.151V18H372.151ZM371.448 18H370.448V19H371.448V18ZM370.253 9.20215L369.852 10.1184L369.864 10.1235L370.253 9.20215ZM367.493 9.33398L368.013 10.1882L368.022 10.1827L367.493 9.33398ZM366.5 10.2744L365.672 9.71384L365.67 9.71672L366.5 10.2744ZM372.143 11.7334L371.811 12.6767L373.055 13.1144L373.14 11.7985L372.143 11.7334ZM371.668 11.5664L370.674 11.4575L370.587 12.2463L371.336 12.5097L371.668 11.5664ZM372.028 10.3447L371.137 9.89219L371.134 9.89751L372.028 10.3447ZM372.811 9.30762L373.491 10.0409L373.498 10.0343L372.811 9.30762ZM373.944 8.58691L374.32 9.51367L374.326 9.51108L373.944 8.58691ZM376.704 8.5166L376.371 9.45932L376.379 9.46238L376.388 9.46529L376.704 8.5166ZM377.671 9.14062L376.927 9.80875L376.934 9.81674L376.941 9.82457L377.671 9.14062ZM378.277 10.2305L377.324 10.5316L377.325 10.5352L378.277 10.2305ZM378.488 18V19H379.488V18H378.488ZM377.785 18H376.785V19H377.785V18ZM376.59 9.20215L376.177 10.1131L376.189 10.1183L376.59 9.20215ZM375.289 8.95605L375.3 9.95599L375.301 9.95598L375.289 8.95605ZM372.371 10.8633L373.288 11.2614L373.291 11.2551L372.371 10.8633ZM364.841 10.5029V18H366.841V10.5029H364.841ZM365.841 17H365.138V19H365.841V17ZM366.138 18V8.49023H364.138V18H366.138ZM365.138 9.49023H365.823V7.49023H365.138V9.49023ZM364.823 8.49897L364.841 10.5117L366.841 10.4942L366.823 8.4815L364.823 8.49897ZM366.481 11.8594L366.13 11.4551L364.62 12.7675L364.972 13.1718L366.481 11.8594ZM366.371 12.204C366.409 11.7962 366.503 11.4126 366.652 11.0495L364.801 10.2904C364.575 10.8413 364.435 11.4186 364.379 12.0187L366.371 12.204ZM366.648 11.0596C366.8 10.6998 366.996 10.391 367.235 10.126L365.748 8.78807C365.354 9.22622 365.04 9.726 364.806 10.2803L366.648 11.0596ZM367.228 10.1328C367.463 9.87716 367.735 9.67612 368.053 9.52606L367.197 7.71808C366.648 7.97817 366.164 8.33378 365.754 8.78131L367.228 10.1328ZM368.048 9.52825C368.341 9.39156 368.683 9.31445 369.093 9.31445V7.31445C368.424 7.31445 367.788 7.44242 367.202 7.71589L368.048 9.52825ZM369.093 9.31445C369.478 9.31445 369.79 9.36684 370.042 9.4535L370.692 7.56213C370.194 7.39098 369.657 7.31445 369.093 7.31445V9.31445ZM370.06 9.45938C370.296 9.53575 370.476 9.64943 370.619 9.79597L372.049 8.39739C371.665 8.00487 371.2 7.72597 370.675 7.55624L370.06 9.45938ZM370.627 9.80379C370.759 9.93602 370.889 10.1367 370.99 10.4461L372.89 9.82147C372.711 9.27545 372.436 8.78468 372.041 8.38957L370.627 9.80379ZM370.99 10.4461C371.089 10.7462 371.151 11.1478 371.151 11.6719H373.151C373.151 11.0007 373.073 10.3769 372.89 9.82147L370.99 10.4461ZM371.151 11.6719V18H373.151V11.6719H371.151ZM372.151 17H371.448V19H372.151V17ZM372.448 18V11.6895H370.448V18H372.448ZM372.448 11.6895C372.448 10.8988 372.335 10.1555 372.013 9.55501L370.251 10.5016C370.35 10.6863 370.448 11.0504 370.448 11.6895H372.448ZM372.013 9.55501C371.705 8.98163 371.247 8.53635 370.642 8.28078L369.864 10.1235C370.008 10.1844 370.137 10.2899 370.251 10.5016L372.013 9.55501ZM370.654 8.28599C370.131 8.05724 369.56 7.95605 368.961 7.95605V9.95605C369.335 9.95605 369.625 10.0189 369.852 10.1183L370.654 8.28599ZM368.961 7.95605C368.238 7.95605 367.557 8.11583 366.964 8.4853L368.022 10.1827C368.238 10.0482 368.535 9.95605 368.961 9.95605V7.95605ZM366.973 8.47979C366.45 8.79827 366.013 9.21062 365.672 9.71385L367.328 10.835C367.503 10.5765 367.728 10.3619 368.013 10.1882L366.973 8.47979ZM365.67 9.71672C365.367 10.1682 365.135 10.647 364.981 11.1522L366.894 11.7345C366.987 11.4312 367.129 11.1307 367.33 10.8321L365.67 9.71672ZM364.981 11.1522C364.842 11.6075 364.752 12.0464 364.728 12.4591L366.725 12.5721C366.737 12.3638 366.787 12.0878 366.894 11.7345L364.981 11.1522ZM372.474 10.7901L372 10.6231L371.336 12.5097L371.811 12.6767L372.474 10.7901ZM372.662 11.6753C372.696 11.366 372.782 11.0732 372.923 10.7919L371.134 9.89751C370.888 10.3897 370.734 10.9114 370.674 11.4575L372.662 11.6753ZM372.92 10.7973C373.066 10.5099 373.255 10.2592 373.49 10.0409L372.131 8.57435C371.722 8.95365 371.389 9.39444 371.137 9.8922L372.92 10.7973ZM373.498 10.0343C373.725 9.81969 373.995 9.64529 374.32 9.51365L373.569 7.66017C373.026 7.8801 372.541 8.18617 372.124 8.58097L373.498 10.0343ZM374.326 9.51108C374.631 9.38523 374.985 9.31445 375.403 9.31445V7.31445C374.755 7.31445 374.137 7.42531 373.562 7.66275L374.326 9.51108ZM375.403 9.31445C375.798 9.31445 376.116 9.3693 376.371 9.45932L377.038 7.57388C376.53 7.39437 375.981 7.31445 375.403 7.31445V9.31445ZM376.388 9.46529C376.62 9.54256 376.791 9.65802 376.927 9.80875L378.415 8.4725C378.035 8.04901 377.562 7.74846 377.02 7.56792L376.388 9.46529ZM376.941 9.82457C377.083 9.97595 377.219 10.1994 377.324 10.5316L379.231 9.92934C379.055 9.37095 378.786 8.8678 378.4 8.45668L376.941 9.82457ZM377.325 10.5352C377.425 10.848 377.488 11.2721 377.488 11.8301H379.488C379.488 11.1342 379.411 10.4919 379.23 9.92569L377.325 10.5352ZM377.488 11.8301V18H379.488V11.8301H377.488ZM378.488 17H377.785V19H378.488V17ZM378.785 18V11.8213H376.785V18H378.785ZM378.785 11.8213C378.785 10.9993 378.673 10.2363 378.361 9.62003L376.577 10.5245C376.686 10.7403 376.785 11.1433 376.785 11.8213H378.785ZM378.361 9.62003C378.06 9.02762 377.608 8.5559 376.991 8.28599L376.189 10.1183C376.322 10.1765 376.455 10.2849 376.577 10.5245L378.361 9.62003ZM377.003 8.2913C376.471 8.0503 375.887 7.94886 375.277 7.95613L375.301 9.95598C375.675 9.95153 375.959 10.0142 376.177 10.113L377.003 8.2913ZM375.278 7.95612C374.64 7.96329 374.035 8.08226 373.49 8.34628L374.363 10.1459C374.592 10.0349 374.895 9.96054 375.3 9.95599L375.278 7.95612ZM373.49 8.34628C373 8.5839 372.57 8.89593 372.216 9.28988L373.704 10.6261C373.866 10.4459 374.08 10.2833 374.363 10.1459L373.49 8.34628ZM372.216 9.28988C371.894 9.64891 371.634 10.0424 371.451 10.4714L373.291 11.2551C373.378 11.0514 373.511 10.8413 373.704 10.6261L372.216 9.28988ZM371.454 10.4652C371.284 10.8557 371.171 11.2591 371.145 11.6683L373.14 11.7985C373.149 11.6687 373.188 11.492 373.288 11.2614L371.454 10.4652Z" fill="#45519B"/>
</svg>
