<svg width="41" height="40" viewBox="0 0 41 40" fill="none" xmlns="http://www.w3.org/2000/svg">
<path d="M20.3696 0C9.32564 0 0.369629 8.95601 0.369629 20C0.369629 31.044 9.32564 40 20.3696 40C31.4136 40 40.3696 31.044 40.3696 20C40.3696 8.95601 31.4136 0 20.3696 0ZM30.4032 15.3026V18.0106C29.1263 18.0111 27.8856 17.7609 26.7154 17.2672C25.963 16.9495 25.262 16.5402 24.6208 16.0456L24.64 24.381C24.632 26.258 23.8894 28.0215 22.5454 29.3498C21.4517 30.4311 20.0657 31.1187 18.5635 31.3412C18.2106 31.3935 17.8513 31.4203 17.4881 31.4203C15.88 31.4203 14.3534 30.8994 13.1046 29.9383C12.8696 29.7573 12.6448 29.5612 12.4308 29.3498C10.9742 27.9102 10.2231 25.9591 10.3496 23.9066C10.4461 22.3441 11.0717 20.8541 12.1145 19.6862C13.4942 18.1407 15.4243 17.2829 17.4881 17.2829C17.8513 17.2829 18.2106 17.3102 18.5635 17.3624V18.3637V21.149C18.2288 21.0386 17.8714 20.9779 17.4992 20.9779C15.6138 20.9779 14.0884 22.5162 14.1166 24.403C14.1345 25.6103 14.7939 26.6656 15.7666 27.2473C16.2237 27.5208 16.7495 27.6902 17.3107 27.7209C17.7504 27.7451 18.1726 27.6838 18.5635 27.5548C19.9106 27.1098 20.8824 25.8445 20.8824 24.3521L20.8869 18.7703V8.57969H24.6163C24.6199 8.94922 24.6574 9.30977 24.7271 9.65914C25.0085 11.0733 25.8056 12.3002 26.915 13.1366C27.8824 13.8662 29.0869 14.2987 30.3924 14.2987C30.3933 14.2987 30.4041 14.2987 30.4031 14.2978V15.3026H30.4032Z" fill="#004F9C"/>
</svg>
