<svg width="42" height="40" viewBox="0 0 42 40" fill="none" xmlns="http://www.w3.org/2000/svg">
<path d="M21.1342 0C9.96029 0 0.898926 8.95599 0.898926 20C0.898926 31.044 9.96029 40 21.1342 40C32.3082 40 41.3695 31.044 41.3695 20C41.3695 8.95599 32.3082 0 21.1342 0ZM30.3734 15.5939C30.3824 15.7907 30.3867 15.9885 30.3867 16.1871C30.3867 22.2531 25.7151 29.248 17.1718 29.2484H17.1721H17.1718C14.5489 29.2484 12.1081 28.4885 10.0526 27.1863C10.416 27.2287 10.7859 27.2498 11.1605 27.2498C13.3366 27.2498 15.3393 26.5161 16.9291 25.2847C14.8959 25.2475 13.1816 23.9203 12.59 22.0963C12.8732 22.15 13.1644 22.1793 13.4629 22.1793C13.8869 22.1793 14.2975 22.1228 14.6878 22.0175C12.5626 21.597 10.9616 19.7406 10.9616 17.5177C10.9616 17.4969 10.9616 17.4783 10.9622 17.4591C11.5881 17.803 12.3038 18.0099 13.0659 18.0331C11.8187 17.2107 10.999 15.8047 10.999 14.212C10.999 13.371 11.229 12.583 11.6279 11.9046C13.9184 14.6823 17.3413 16.5091 21.2015 16.701C21.1219 16.3647 21.0808 16.0144 21.0808 15.6543C21.0808 13.1201 23.161 11.0641 25.7259 11.0641C27.0619 11.0641 28.2686 11.6223 29.1161 12.5146C30.1743 12.3083 31.1679 11.9263 32.0655 11.4005C31.7181 12.4719 30.982 13.371 30.023 13.9395C30.9626 13.8284 31.858 13.5822 32.6901 13.2166C32.0686 14.1373 31.2803 14.946 30.3734 15.5939Z" fill="#004F9C"/>
</svg>
